<svg version="1.1" xmlns="http://www.w3.org/2000/svg" xmlns:xlink="http://www.w3.org/1999/xlink" width="100px" height="100px" viewBox="0,0,256,256"><g fill-opacity="0" fill="#dddddd" fill-rule="nonzero" stroke="none" stroke-width="1" stroke-linecap="butt" stroke-linejoin="miter" stroke-miterlimit="10" stroke-dasharray="" stroke-dashoffset="0" font-family="none" font-weight="none" font-size="none" text-anchor="none" style="mix-blend-mode: normal"><path d="M0,256v-256h256v256z" id="bgRectangle"></path></g><g fill="#ffffff" fill-rule="nonzero" stroke="none" stroke-width="1" stroke-linecap="butt" stroke-linejoin="miter" stroke-miterlimit="10" stroke-dasharray="" stroke-dashoffset="0" font-family="none" font-weight="none" font-size="none" text-anchor="none" style="mix-blend-mode: normal"><g transform="scale(2.56,2.56)"><path d="M57.98438,20c-0.25977,0.00414 -0.50774,0.10921 -0.69141,0.29297l-9,9c-0.39037,0.39053 -0.39037,1.02353 0,1.41406l11.29297,11.29297h-46.58594c-0.55226,0.00006 -0.99994,0.44774 -1,1v14c0.00006,0.55226 0.44774,0.99994 1,1h46.58594l-11.29297,11.29297c-0.39037,0.39053 -0.39037,1.02353 0,1.41406l9,9c0.39053,0.39037 1.02353,0.39037 1.41406,0l29,-29c0.39037,-0.39053 0.39037,-1.02353 0,-1.41406l-29,-29c-0.19132,-0.19141 -0.45205,-0.29711 -0.72266,-0.29297zM58,22.41406l27.58594,27.58594l-27.58594,27.58594l-7.58594,-7.58594l12.29297,-12.29297c0.28583,-0.28603 0.37129,-0.71604 0.21656,-1.08963c-0.15474,-0.37359 -0.51922,-0.61724 -0.92359,-0.6174h-48v-12h48c0.40437,-0.00016 0.76885,-0.24381 0.92359,-0.6174c0.15474,-0.37359 0.06927,-0.8036 -0.21656,-1.08963l-12.29297,-12.29297zM58.49414,27.49414c-0.20372,0.00004 -0.38705,0.12367 -0.46345,0.31252c-0.0764,0.18885 -0.03059,0.40518 0.1158,0.54685l10.5,10.5c0.12541,0.13061 0.31163,0.18321 0.48684,0.13753c0.17521,-0.04568 0.31204,-0.18251 0.35772,-0.35772c0.04568,-0.17521 -0.00693,-0.36143 -0.13753,-0.48684l-10.5,-10.5c-0.09421,-0.09737 -0.22389,-0.15234 -0.35937,-0.15234zM73.99414,42.99414c-0.20372,0.00004 -0.38705,0.12367 -0.46345,0.31252c-0.0764,0.18885 -0.03059,0.40518 0.1158,0.54685l2.5,2.5c0.12541,0.13061 0.31163,0.18321 0.48684,0.13753c0.17521,-0.04568 0.31204,-0.18251 0.35772,-0.35772c0.04568,-0.17521 -0.00693,-0.36143 -0.13753,-0.48684l-2.5,-2.5c-0.09421,-0.09737 -0.22389,-0.15234 -0.35937,-0.15234zM78.99414,47.99414c-0.20372,0.00004 -0.38705,0.12367 -0.46345,0.31252c-0.0764,0.18885 -0.03059,0.40518 0.1158,0.54685l1.5,1.5c0.12541,0.13061 0.31163,0.18321 0.48684,0.13753c0.17521,-0.04568 0.31204,-0.18251 0.35772,-0.35772c0.04568,-0.17521 -0.00693,-0.36143 -0.13753,-0.48684l-1.5,-1.5c-0.09421,-0.09737 -0.22389,-0.15234 -0.35937,-0.15234zM75.99023,53.99609c-0.12976,0.00361 -0.25303,0.05754 -0.34375,0.15039l-17.5,17.5c-0.13061,0.12541 -0.18321,0.31163 -0.13753,0.48684c0.04568,0.17521 0.18251,0.31204 0.35772,0.35772c0.17521,0.04568 0.36143,-0.00693 0.48684,-0.13753l17.5,-17.5c0.14714,-0.14386 0.19113,-0.36316 0.11086,-0.55264c-0.08028,-0.18947 -0.26844,-0.31042 -0.47414,-0.30478z"></path></g></g></svg>