<svg width="424" height="47" viewBox="0 0 424 47" fill="none" xmlns="http://www.w3.org/2000/svg">
<path d="M43.376 32.688L43.1929 32.2227L42.6352 32.4422L42.9511 32.9515L43.376 32.688ZM51.632 46V46.5H52.5305L52.0569 45.7365L51.632 46ZM38.064 46L37.6361 46.2586L37.7819 46.5H38.064V46ZM30.832 34.032L31.2599 33.7734L31.1141 33.532H30.832V34.032ZM12.272 34.032V33.532H11.772V34.032H12.272ZM12.272 46V46.5H12.772V46H12.272ZM0.752 46H0.252V46.5H0.752V46ZM0.752 1.2V0.699997H0.252V1.2H0.752ZM12.272 10.864V10.364H11.772V10.864H12.272ZM12.272 24.368H11.772V24.868H12.272V24.368ZM52.604 17.648C52.604 24.7514 49.006 29.9346 43.1929 32.2227L43.5591 33.1533C49.778 30.7054 53.604 25.1366 53.604 17.648H52.604ZM42.9511 32.9515L51.2071 46.2635L52.0569 45.7365L43.8009 32.4245L42.9511 32.9515ZM51.632 45.5H38.064V46.5H51.632V45.5ZM38.4919 45.7414L31.2599 33.7734L30.4041 34.2906L37.6361 46.2586L38.4919 45.7414ZM30.832 33.532H12.272V34.532H30.832V33.532ZM11.772 34.032V46H12.772V34.032H11.772ZM12.272 45.5H0.752V46.5H12.272V45.5ZM1.252 46V1.2H0.252V46H1.252ZM0.752 1.7H35.952V0.699997H0.752V1.7ZM35.952 1.7C40.9337 1.7 45.0914 3.28079 47.9997 6.04257C50.9054 8.80181 52.604 12.7773 52.604 17.648H53.604C53.604 12.5347 51.8146 8.28619 48.6883 5.31743C45.5647 2.3512 41.1463 0.699997 35.952 0.699997V1.7ZM11.772 10.864V24.368H12.772V10.864H11.772ZM12.272 24.868H32.752V23.868H12.272V24.868ZM32.752 24.868C34.4552 24.868 36.7822 24.8766 38.6778 23.98C39.642 23.5239 40.5043 22.8309 41.1205 21.7872C41.7346 20.7473 42.084 19.394 42.084 17.648H41.084C41.084 19.262 40.7614 20.4287 40.2595 21.2788C39.7597 22.1251 39.062 22.692 38.2502 23.076C36.5938 23.8594 34.5048 23.868 32.752 23.868V24.868ZM42.084 17.648C42.084 15.8867 41.7349 14.5221 41.1216 13.4736C40.5059 12.421 39.6441 11.7214 38.6794 11.2608C36.7831 10.3553 34.4551 10.364 32.752 10.364V11.364C34.5049 11.364 36.593 11.3727 38.2486 12.1632C39.0599 12.5506 39.7581 13.123 40.2584 13.9784C40.7611 14.8379 41.084 16.0172 41.084 17.648H42.084ZM32.752 10.364H12.272V11.364H32.752V10.364ZM104.237 10.352V10.852H104.737V10.352H104.237ZM68.397 10.352V9.852H67.897V10.352H68.397ZM68.397 19.44H67.897V19.94H68.397V19.44ZM104.237 19.44H104.737V18.94H104.237V19.44ZM104.237 27.76V28.26H104.737V27.76H104.237ZM68.397 27.76V27.26H67.897V27.76H68.397ZM68.397 36.848H67.897V37.348H68.397V36.848ZM104.237 36.848H104.737V36.348H104.237V36.848ZM104.237 46V46.5H104.737V46H104.237ZM56.877 46H56.377V46.5H56.877V46ZM56.877 1.2V0.699997H56.377V1.2H56.877ZM104.237 1.2H104.737V0.699997H104.237V1.2ZM104.237 9.852H68.397V10.852H104.237V9.852ZM67.897 10.352V19.44H68.897V10.352H67.897ZM68.397 19.94H104.237V18.94H68.397V19.94ZM103.737 19.44V27.76H104.737V19.44H103.737ZM104.237 27.26H68.397V28.26H104.237V27.26ZM67.897 27.76V36.848H68.897V27.76H67.897ZM68.397 37.348H104.237V36.348H68.397V37.348ZM103.737 36.848V46H104.737V36.848H103.737ZM104.237 45.5H56.877V46.5H104.237V45.5ZM57.377 46V1.2H56.377V46H57.377ZM56.877 1.7H104.237V0.699997H56.877V1.7ZM103.737 1.2V10.352H104.737V1.2H103.737ZM187.7 1.2V0.699997H187.353L187.232 1.0249L187.7 1.2ZM200.18 1.2L200.645 1.3834L200.915 0.699997H200.18V1.2ZM182.516 46V46.5H182.856L182.981 46.1834L182.516 46ZM166.58 46L166.114 46.182L166.239 46.5H166.58V46ZM153.396 12.272L153.862 12.09L153.397 10.9015L152.931 12.0892L153.396 12.272ZM140.148 46V46.5H140.489L140.613 46.1828L140.148 46ZM124.276 46L123.811 46.1834L123.936 46.5H124.276V46ZM106.612 1.2V0.699997H105.877L106.147 1.3834L106.612 1.2ZM119.028 1.2L119.496 1.02388L119.374 0.699997H119.028V1.2ZM132.276 36.4L131.808 36.5761L132.263 37.7846L132.741 36.585L132.276 36.4ZM146.292 1.2V0.699997H145.953L145.827 1.01503L146.292 1.2ZM160.436 1.2L160.9 1.01459L160.775 0.699997H160.436V1.2ZM174.516 36.464L174.052 36.6494L174.531 37.8508L174.984 36.6391L174.516 36.464ZM187.7 1.7H200.18V0.699997H187.7V1.7ZM199.715 1.0166L182.051 45.8166L182.981 46.1834L200.645 1.3834L199.715 1.0166ZM182.516 45.5H166.58V46.5H182.516V45.5ZM167.046 45.818L153.862 12.09L152.93 12.454L166.114 46.182L167.046 45.818ZM152.931 12.0892L139.683 45.8172L140.613 46.1828L153.861 12.4548L152.931 12.0892ZM140.148 45.5H124.276V46.5H140.148V45.5ZM124.741 45.8166L107.077 1.0166L106.147 1.3834L123.811 46.1834L124.741 45.8166ZM106.612 1.7H119.028V0.699997H106.612V1.7ZM118.56 1.37612L131.808 36.5761L132.744 36.2239L119.496 1.02388L118.56 1.37612ZM132.741 36.585L146.757 1.38496L145.827 1.01503L131.811 36.215L132.741 36.585ZM146.292 1.7H160.436V0.699997H146.292V1.7ZM159.972 1.3854L174.052 36.6494L174.98 36.2786L160.9 1.01459L159.972 1.3854ZM174.984 36.6391L188.168 1.37509L187.232 1.0249L174.048 36.2889L174.984 36.6391ZM237.888 46L237.441 46.2248L237.579 46.5H237.888V46ZM233.088 36.464L233.534 36.2392L233.396 35.964H233.088V36.464ZM206.272 36.464V35.964H205.963L205.825 36.2392L206.272 36.464ZM201.472 46V46.5H201.78L201.918 46.2248L201.472 46ZM188.799 46L188.355 45.7708L187.979 46.5H188.799V46ZM211.904 1.2V0.699997H211.599L211.459 0.970821L211.904 1.2ZM227.456 1.2L227.9 0.97032L227.76 0.699997H227.456V1.2ZM250.624 46V46.5H251.445L251.068 45.7703L250.624 46ZM210.56 27.888L210.113 27.6631L209.748 28.388H210.56V27.888ZM228.8 27.888V28.388H229.609L229.247 27.6644L228.8 27.888ZM219.712 9.712L220.159 9.48839L219.713 8.5971L219.265 9.48713L219.712 9.712ZM238.334 45.7752L233.534 36.2392L232.641 36.6888L237.441 46.2248L238.334 45.7752ZM233.088 35.964H206.272V36.964H233.088V35.964ZM205.825 36.2392L201.025 45.7752L201.918 46.2248L206.718 36.6888L205.825 36.2392ZM201.472 45.5H188.799V46.5H201.472V45.5ZM189.244 46.2292L212.348 1.42917L211.459 0.970821L188.355 45.7708L189.244 46.2292ZM211.904 1.7H227.456V0.699997H211.904V1.7ZM227.011 1.42967L250.179 46.2297L251.068 45.7703L227.9 0.97032L227.011 1.42967ZM250.624 45.5H237.888V46.5H250.624V45.5ZM210.56 28.388H228.8V27.388H210.56V28.388ZM229.247 27.6644L220.159 9.48839L219.264 9.9356L228.352 28.1116L229.247 27.6644ZM219.265 9.48713L210.113 27.6631L211.006 28.1129L220.158 9.93686L219.265 9.48713ZM296.001 32.688L295.818 32.2227L295.26 32.4422L295.576 32.9515L296.001 32.688ZM304.257 46V46.5H305.155L304.682 45.7365L304.257 46ZM290.689 46L290.261 46.2586L290.407 46.5H290.689V46ZM283.457 34.032L283.885 33.7734L283.739 33.532H283.457V34.032ZM264.897 34.032V33.532H264.397V34.032H264.897ZM264.897 46V46.5H265.397V46H264.897ZM253.377 46H252.877V46.5H253.377V46ZM253.377 1.2V0.699997H252.877V1.2H253.377ZM264.897 10.864V10.364H264.397V10.864H264.897ZM264.897 24.368H264.397V24.868H264.897V24.368ZM305.229 17.648C305.229 24.7514 301.631 29.9346 295.818 32.2227L296.184 33.1533C302.403 30.7054 306.229 25.1366 306.229 17.648H305.229ZM295.576 32.9515L303.832 46.2635L304.682 45.7365L296.426 32.4245L295.576 32.9515ZM304.257 45.5H290.689V46.5H304.257V45.5ZM291.117 45.7414L283.885 33.7734L283.029 34.2906L290.261 46.2586L291.117 45.7414ZM283.457 33.532H264.897V34.532H283.457V33.532ZM264.397 34.032V46H265.397V34.032H264.397ZM264.897 45.5H253.377V46.5H264.897V45.5ZM253.877 46V1.2H252.877V46H253.877ZM253.377 1.7H288.577V0.699997H253.377V1.7ZM288.577 1.7C293.559 1.7 297.716 3.28079 300.625 6.04257C303.53 8.80181 305.229 12.7773 305.229 17.648H306.229C306.229 12.5347 304.44 8.28619 301.313 5.31743C298.19 2.3512 293.771 0.699997 288.577 0.699997V1.7ZM264.397 10.864V24.368H265.397V10.864H264.397ZM264.897 24.868H285.377V23.868H264.897V24.868ZM285.377 24.868C287.08 24.868 289.407 24.8766 291.303 23.98C292.267 23.5239 293.129 22.8309 293.746 21.7872C294.36 20.7473 294.709 19.394 294.709 17.648H293.709C293.709 19.262 293.386 20.4287 292.884 21.2788C292.385 22.1251 291.687 22.692 290.875 23.076C289.219 23.8594 287.13 23.868 285.377 23.868V24.868ZM294.709 17.648C294.709 15.8867 294.36 14.5221 293.747 13.4736C293.131 12.421 292.269 11.7214 291.304 11.2608C289.408 10.3553 287.08 10.364 285.377 10.364V11.364C287.13 11.364 289.218 11.3727 290.874 12.1632C291.685 12.5506 292.383 13.123 292.883 13.9784C293.386 14.8379 293.709 16.0172 293.709 17.648H294.709ZM285.377 10.364H264.897V11.364H285.377V10.364ZM309.502 46H309.002V46.5H309.502V46ZM309.502 1.2V0.699997H309.002V1.2H309.502ZM321.022 10.864V10.364H320.522V10.864H321.022ZM321.022 36.336H320.522V36.836H321.022V36.336ZM342.014 1.7C347.706 1.7 353.016 3.4606 356.898 7.05489C360.773 10.6426 363.274 16.1018 363.274 23.6H364.274C364.274 15.8662 361.687 10.1254 357.578 6.3211C353.476 2.52339 347.906 0.699997 342.014 0.699997V1.7ZM363.274 23.6C363.274 31.0982 360.773 36.5574 356.898 40.1451C353.016 43.7394 347.706 45.5 342.014 45.5V46.5C347.906 46.5 353.476 44.6766 357.578 40.8789C361.687 37.0746 364.274 31.3338 364.274 23.6H363.274ZM342.014 45.5H309.502V46.5H342.014V45.5ZM310.002 46V1.2H309.002V46H310.002ZM309.502 1.7H342.014V0.699997H309.502V1.7ZM337.662 36.836C342.02 36.836 345.813 36.3786 348.512 34.4552C351.255 32.5009 352.754 29.1265 352.754 23.6H351.754C351.754 28.9535 350.309 31.9471 347.932 33.6408C345.511 35.3654 342.008 35.836 337.662 35.836V36.836ZM352.754 23.6C352.754 18.0735 351.255 14.6991 348.512 12.7448C345.813 10.8214 342.02 10.364 337.662 10.364V11.364C342.008 11.364 345.511 11.8346 347.932 13.5592C350.309 15.2529 351.754 18.2465 351.754 23.6H352.754ZM337.662 10.364H321.022V11.364H337.662V10.364ZM320.522 10.864V36.336H321.522V10.864H320.522ZM321.022 36.836H337.662V35.836H321.022V36.836ZM366.487 30.576V30.076H365.987V30.576H366.487ZM378.007 30.576H378.507V30.076H378.007V30.576ZM395.095 27.568L395.119 27.0686L395.118 27.0685L395.095 27.568ZM421.783 15.856V16.356H422.283V15.856H421.783ZM410.263 15.856H409.763V16.356H410.263V15.856ZM395.095 18.992L395.066 19.4911L395.068 19.4913L395.095 18.992ZM366.487 31.076H378.007V30.076H366.487V31.076ZM377.507 30.576C377.507 31.8281 377.761 32.9585 378.421 33.934C379.079 34.9083 380.107 35.6773 381.562 36.2709C384.446 37.4476 389.143 37.988 396.439 37.988V36.988C389.143 36.988 384.624 36.4404 381.94 35.3451C380.611 34.8027 379.767 34.1397 379.249 33.374C378.733 32.6095 378.507 31.6919 378.507 30.576H377.507ZM396.439 37.988C402.484 37.988 406.493 37.6547 408.999 36.8522C410.26 36.4487 411.19 35.9117 411.804 35.1939C412.428 34.4645 412.683 33.5973 412.683 32.624H411.683C411.683 33.4107 411.482 34.0315 411.044 34.5441C410.596 35.0683 409.858 35.5273 408.695 35.8998C406.353 36.6493 402.49 36.988 396.439 36.988V37.988ZM412.683 32.624C412.683 31.6436 412.515 30.7765 411.949 30.0576C411.389 29.3463 410.498 28.8566 409.226 28.4878C406.701 27.7557 402.361 27.4195 395.119 27.0686L395.071 28.0674C402.357 28.4205 406.561 28.7563 408.948 29.4482C410.132 29.7914 410.789 30.2017 411.163 30.6763C411.531 31.1435 411.683 31.7484 411.683 32.624H412.683ZM395.118 27.0685C385.355 26.6204 378.635 25.6282 374.362 23.5427C372.241 22.5072 370.745 21.2122 369.775 19.5974C368.802 17.9804 368.331 16.0001 368.331 13.552H367.331C367.331 16.1279 367.828 18.2996 368.917 20.1126C370.009 21.9278 371.669 23.3408 373.924 24.4413C378.403 26.6278 385.315 27.6196 395.072 28.0675L395.118 27.0685ZM368.331 13.552C368.331 11.1776 368.934 9.23903 370.069 7.65526C371.208 6.06703 372.906 4.80048 375.151 3.81808C379.659 1.84585 386.275 1.06 394.647 1.06V0.0599976C386.251 0.0599976 379.459 0.842144 374.751 2.90192C372.388 3.93552 370.526 5.30097 369.257 7.07274C367.984 8.84897 367.331 10.9983 367.331 13.552H368.331ZM394.647 1.06C403.071 1.06 409.756 2.11595 414.32 4.4992C416.593 5.68654 418.327 7.19685 419.495 9.06052C420.662 10.9228 421.283 13.1679 421.283 15.856H422.283C422.283 13.0081 421.624 10.5732 420.343 8.52947C419.063 6.48714 417.181 4.86546 414.782 3.6128C410.002 1.11604 403.119 0.0599976 394.647 0.0599976V1.06ZM421.783 15.356H410.263V16.356H421.783V15.356ZM410.763 15.856C410.763 14.5361 410.431 13.4179 409.696 12.5037C408.967 11.5972 407.881 10.9404 406.463 10.4622C403.647 9.51251 399.344 9.212 393.367 9.212V10.212C399.358 10.212 403.503 10.5195 406.143 11.4098C407.453 11.8516 408.347 12.4228 408.916 13.1303C409.479 13.8301 409.763 14.7119 409.763 15.856H410.763ZM393.367 9.212C387.713 9.212 384.13 9.48025 381.955 10.1971C380.855 10.5595 380.06 11.0531 379.549 11.7333C379.033 12.4181 378.851 13.229 378.851 14.128H379.851C379.851 13.363 380.005 12.7899 380.347 12.3347C380.694 11.8749 381.279 11.4724 382.267 11.1469C384.268 10.4877 387.693 10.212 393.367 10.212V9.212ZM378.851 14.128C378.851 15.0557 379.032 15.874 379.588 16.5544C380.135 17.2239 380.989 17.6904 382.184 18.0471C384.556 18.7554 388.559 19.1084 395.066 19.4911L395.124 18.4929C388.575 18.1076 384.706 17.7566 382.47 17.0889C381.361 16.7576 380.727 16.3681 380.362 15.9216C380.006 15.486 379.851 14.9283 379.851 14.128H378.851ZM395.068 19.4913C403.926 19.9727 410.994 20.4527 415.854 22.1986C418.27 23.0665 420.096 24.233 421.32 25.8302C422.541 27.4221 423.203 29.4917 423.203 32.24H424.203C424.203 29.3243 423.497 27.0259 422.114 25.2218C420.734 23.423 418.72 22.1655 416.192 21.2574C411.164 19.4513 403.928 18.9713 395.122 18.4927L395.068 19.4913ZM423.203 32.24C423.203 35.1503 422.516 37.4422 421.263 39.2547C420.008 41.0695 418.159 42.4434 415.77 43.4685C410.969 45.5284 404.085 46.14 395.799 46.14V47.14C404.089 47.14 411.157 46.5356 416.164 44.3875C418.679 43.3086 420.698 41.8305 422.085 39.8233C423.474 37.8138 424.203 35.3137 424.203 32.24H423.203ZM395.799 46.14C386.62 46.14 379.392 45.3522 374.47 43.0047C372.022 41.8371 370.161 40.2911 368.909 38.276C367.655 36.26 366.987 33.7366 366.987 30.576H365.987C365.987 33.8794 366.687 36.596 368.059 38.804C369.433 41.0129 371.456 42.6749 374.04 43.9073C379.182 46.3598 386.61 47.14 395.799 47.14V46.14Z" fill="url(#paint0_linear_5_6)" fill-opacity="0.76"/>
<defs>
<linearGradient id="paint0_linear_5_6" x1="389" y1="-12" x2="389" y2="48" gradientUnits="userSpaceOnUse">
<stop stop-color="#3AE91D"/>
<stop offset="0.515625" stop-color="#A6A6A6" stop-opacity="0"/>
<stop offset="1" stop-color="#33ED23" stop-opacity="0.67"/>
</linearGradient>
</defs>
</svg>
