<svg width="705" height="47" viewBox="0 0 705 47" fill="none" xmlns="http://www.w3.org/2000/svg">
<path d="M55.152 1.2H55.652V0.699997H55.152V1.2ZM55.152 10.864V11.364H55.652V10.864H55.152ZM33.392 10.864V10.364H32.892V10.864H33.392ZM33.392 46V46.5H33.892V46H33.392ZM21.872 46H21.372V46.5H21.872V46ZM21.872 10.864H22.372V10.364H21.872V10.864ZM0.112 10.864H-0.388V11.364H0.112V10.864ZM0.112 1.2V0.699997H-0.388V1.2H0.112ZM54.652 1.2V10.864H55.652V1.2H54.652ZM55.152 10.364H33.392V11.364H55.152V10.364ZM32.892 10.864V46H33.892V10.864H32.892ZM33.392 45.5H21.872V46.5H33.392V45.5ZM22.372 46V10.864H21.372V46H22.372ZM21.872 10.364H0.112V11.364H21.872V10.364ZM0.612 10.864V1.2H-0.388V10.864H0.612ZM0.112 1.7H55.152V0.699997H0.112V1.7ZM106.3 10.352V10.852H106.8V10.352H106.3ZM70.4595 10.352V9.852H69.9595V10.352H70.4595ZM70.4595 19.44H69.9595V19.94H70.4595V19.44ZM106.3 19.44H106.8V18.94H106.3V19.44ZM106.3 27.76V28.26H106.8V27.76H106.3ZM70.4595 27.76V27.26H69.9595V27.76H70.4595ZM70.4595 36.848H69.9595V37.348H70.4595V36.848ZM106.3 36.848H106.8V36.348H106.3V36.848ZM106.3 46V46.5H106.8V46H106.3ZM58.9395 46H58.4395V46.5H58.9395V46ZM58.9395 1.2V0.699997H58.4395V1.2H58.9395ZM106.3 1.2H106.8V0.699997H106.3V1.2ZM106.3 9.852H70.4595V10.852H106.3V9.852ZM69.9595 10.352V19.44H70.9595V10.352H69.9595ZM70.4595 19.94H106.3V18.94H70.4595V19.94ZM105.8 19.44V27.76H106.8V19.44H105.8ZM106.3 27.26H70.4595V28.26H106.3V27.26ZM69.9595 27.76V36.848H70.9595V27.76H69.9595ZM70.4595 37.348H106.3V36.348H70.4595V37.348ZM105.8 36.848V46H106.8V36.848H105.8ZM106.3 45.5H58.9395V46.5H106.3V45.5ZM59.4395 46V1.2H58.4395V46H59.4395ZM58.9395 1.7H106.3V0.699997H58.9395V1.7ZM105.8 1.2V10.352H106.8V1.2H105.8ZM153.126 32.688L152.943 32.2227L152.385 32.4422L152.701 32.9515L153.126 32.688ZM161.382 46V46.5H162.28L161.807 45.7365L161.382 46ZM147.814 46L147.386 46.2586L147.532 46.5H147.814V46ZM140.582 34.032L141.01 33.7734L140.864 33.532H140.582V34.032ZM122.022 34.032V33.532H121.522V34.032H122.022ZM122.022 46V46.5H122.522V46H122.022ZM110.502 46H110.002V46.5H110.502V46ZM110.502 1.2V0.699997H110.002V1.2H110.502ZM122.022 10.864V10.364H121.522V10.864H122.022ZM122.022 24.368H121.522V24.868H122.022V24.368ZM162.354 17.648C162.354 24.7514 158.756 29.9346 152.943 32.2227L153.309 33.1533C159.528 30.7054 163.354 25.1366 163.354 17.648H162.354ZM152.701 32.9515L160.957 46.2635L161.807 45.7365L153.551 32.4245L152.701 32.9515ZM161.382 45.5H147.814V46.5H161.382V45.5ZM148.242 45.7414L141.01 33.7734L140.154 34.2906L147.386 46.2586L148.242 45.7414ZM140.582 33.532H122.022V34.532H140.582V33.532ZM121.522 34.032V46H122.522V34.032H121.522ZM122.022 45.5H110.502V46.5H122.022V45.5ZM111.002 46V1.2H110.002V46H111.002ZM110.502 1.7H145.702V0.699997H110.502V1.7ZM145.702 1.7C150.684 1.7 154.841 3.28079 157.75 6.04257C160.655 8.80181 162.354 12.7773 162.354 17.648H163.354C163.354 12.5347 161.565 8.28619 158.438 5.31743C155.315 2.3512 150.896 0.699997 145.702 0.699997V1.7ZM121.522 10.864V24.368H122.522V10.864H121.522ZM122.022 24.868H142.502V23.868H122.022V24.868ZM142.502 24.868C144.205 24.868 146.532 24.8766 148.428 23.98C149.392 23.5239 150.254 22.8309 150.871 21.7872C151.485 20.7473 151.834 19.394 151.834 17.648H150.834C150.834 19.262 150.511 20.4287 150.009 21.2788C149.51 22.1251 148.812 22.692 148 23.076C146.344 23.8594 144.255 23.868 142.502 23.868V24.868ZM151.834 17.648C151.834 15.8867 151.485 14.5221 150.872 13.4736C150.256 12.421 149.394 11.7214 148.429 11.2608C146.533 10.3553 144.205 10.364 142.502 10.364V11.364C144.255 11.364 146.343 11.3727 147.999 12.1632C148.81 12.5506 149.508 13.123 150.008 13.9784C150.511 14.8379 150.834 16.0172 150.834 17.648H151.834ZM142.502 10.364H122.022V11.364H142.502V10.364ZM235.235 1.2H235.735V0.699997H235.235V1.2ZM235.235 46V46.5H235.735V46H235.235ZM223.715 46H223.215V46.5H223.715V46ZM223.715 15.28H224.215V13.4908L223.287 15.0208L223.715 15.28ZM205.091 46V46.5H205.373L205.519 46.2592L205.091 46ZM196.771 46L196.343 46.2592L196.489 46.5H196.771V46ZM178.147 15.28L178.575 15.0208L177.647 13.4908V15.28H178.147ZM178.147 46V46.5H178.647V46H178.147ZM166.627 46H166.127V46.5H166.627V46ZM166.627 1.2V0.699997H166.127V1.2H166.627ZM182.179 1.2L182.609 0.944929L182.464 0.699997H182.179V1.2ZM200.931 32.816L200.501 33.0711L200.931 33.7961L201.361 33.0711L200.931 32.816ZM219.683 1.2V0.699997H219.398L219.253 0.944929L219.683 1.2ZM234.735 1.2V46H235.735V1.2H234.735ZM235.235 45.5H223.715V46.5H235.235V45.5ZM224.215 46V15.28H223.215V46H224.215ZM223.287 15.0208L204.663 45.7408L205.519 46.2592L224.143 15.5392L223.287 15.0208ZM205.091 45.5H196.771V46.5H205.091V45.5ZM197.199 45.7408L178.575 15.0208L177.719 15.5392L196.343 46.2592L197.199 45.7408ZM177.647 15.28V46H178.647V15.28H177.647ZM178.147 45.5H166.627V46.5H178.147V45.5ZM167.127 46V1.2H166.127V46H167.127ZM166.627 1.7H182.179V0.699997H166.627V1.7ZM181.749 1.45507L200.501 33.0711L201.361 32.5609L182.609 0.944929L181.749 1.45507ZM201.361 33.0711L220.113 1.45507L219.253 0.944929L200.501 32.5609L201.361 33.0711ZM219.683 1.7H235.235V0.699997H219.683V1.7ZM239.049 30.576V30.076H238.549V30.576H239.049ZM250.57 30.576H251.07V30.076H250.57V30.576ZM267.658 27.568L267.682 27.0686L267.68 27.0685L267.658 27.568ZM294.346 15.856V16.356H294.846V15.856H294.346ZM282.826 15.856H282.326V16.356H282.826V15.856ZM267.658 18.992L267.628 19.4911L267.63 19.4913L267.658 18.992ZM239.049 31.076H250.57V30.076H239.049V31.076ZM250.07 30.576C250.07 31.8281 250.324 32.9585 250.983 33.934C251.642 34.9083 252.67 35.6773 254.125 36.2709C257.008 37.4476 261.705 37.988 269.002 37.988V36.988C261.706 36.988 257.187 36.4404 254.502 35.3451C253.173 34.8027 252.329 34.1397 251.812 33.374C251.295 32.6095 251.07 31.6919 251.07 30.576H250.07ZM269.002 37.988C275.047 37.988 279.055 37.6547 281.562 36.8522C282.822 36.4487 283.753 35.9117 284.367 35.1939C284.99 34.4645 285.246 33.5973 285.246 32.624H284.246C284.246 33.4107 284.045 34.0315 283.606 34.5441C283.158 35.0683 282.421 35.5273 281.257 35.8998C278.916 36.6493 275.052 36.988 269.002 36.988V37.988ZM285.246 32.624C285.246 31.6436 285.077 30.7765 284.511 30.0576C283.951 29.3463 283.061 28.8566 281.789 28.4878C279.263 27.7557 274.923 27.4195 267.682 27.0686L267.633 28.0674C274.92 28.4205 279.124 28.7563 281.51 29.4482C282.694 29.7914 283.352 30.2017 283.726 30.6763C284.094 31.1435 284.246 31.7484 284.246 32.624H285.246ZM267.68 27.0685C257.917 26.6204 251.198 25.6282 246.925 23.5427C244.803 22.5072 243.308 21.2122 242.337 19.5974C241.365 17.9804 240.894 16.0001 240.894 13.552H239.894C239.894 16.1279 240.39 18.2996 241.48 20.1126C242.571 21.9278 244.232 23.3408 246.486 24.4413C250.965 26.6278 257.878 27.6196 267.635 28.0675L267.68 27.0685ZM240.894 13.552C240.894 11.1776 241.497 9.23903 242.632 7.65526C243.77 6.06703 245.468 4.80048 247.714 3.81808C252.222 1.84585 258.838 1.06 267.21 1.06V0.0599976C258.813 0.0599976 252.021 0.842144 247.313 2.90192C244.951 3.93552 243.089 5.30097 241.819 7.07274C240.546 8.84897 239.894 10.9983 239.894 13.552H240.894ZM267.21 1.06C275.633 1.06 282.319 2.11595 286.882 4.4992C289.156 5.68654 290.89 7.19685 292.058 9.06052C293.225 10.9228 293.846 13.1679 293.846 15.856H294.846C294.846 13.0081 294.186 10.5732 292.905 8.52947C291.625 6.48714 289.743 4.86546 287.345 3.6128C282.564 1.11604 275.682 0.0599976 267.21 0.0599976V1.06ZM294.346 15.356H282.826V16.356H294.346V15.356ZM283.326 15.856C283.326 14.5361 282.993 13.4179 282.258 12.5037C281.529 11.5972 280.443 10.9404 279.025 10.4622C276.209 9.51251 271.907 9.212 265.93 9.212V10.212C271.92 10.212 276.066 10.5195 278.706 11.4098C280.016 11.8516 280.91 12.4228 281.479 13.1303C282.042 13.8301 282.326 14.7119 282.326 15.856H283.326ZM265.93 9.212C260.276 9.212 256.693 9.48025 254.517 10.1971C253.417 10.5595 252.623 11.0531 252.111 11.7333C251.596 12.4181 251.414 13.229 251.414 14.128H252.414C252.414 13.363 252.567 12.7899 252.91 12.3347C253.256 11.8749 253.842 11.4724 254.83 11.1469C256.83 10.4877 260.255 10.212 265.93 10.212V9.212ZM251.414 14.128C251.414 15.0557 251.594 15.874 252.15 16.5544C252.697 17.2239 253.552 17.6904 254.746 18.0471C257.118 18.7554 261.121 19.1084 267.628 19.4911L267.687 18.4929C261.138 18.1076 257.269 17.7566 255.033 17.0889C253.923 16.7576 253.29 16.3681 252.925 15.9216C252.569 15.486 252.414 14.9283 252.414 14.128H251.414ZM267.63 19.4913C276.488 19.9727 283.556 20.4527 288.416 22.1986C290.833 23.0665 292.658 24.233 293.883 25.8302C295.103 27.4221 295.766 29.4917 295.766 32.24H296.766C296.766 29.3243 296.06 27.0259 294.676 25.2218C293.297 23.423 291.282 22.1655 288.755 21.2574C283.727 19.4513 276.491 18.9713 267.685 18.4927L267.63 19.4913ZM295.766 32.24C295.766 35.1503 295.078 37.4422 293.825 39.2547C292.571 41.0695 290.722 42.4434 288.332 43.4685C283.531 45.5284 276.648 46.14 268.362 46.14V47.14C276.651 47.14 283.72 46.5356 288.727 44.3875C291.241 43.3086 293.26 41.8305 294.648 39.8233C296.037 37.8138 296.766 35.3137 296.766 32.24H295.766ZM268.362 46.14C259.182 46.14 251.955 45.3522 247.033 43.0047C244.585 41.8371 242.724 40.2911 241.471 38.276C240.218 36.26 239.549 33.7366 239.549 30.576H238.549C238.549 33.8794 239.249 36.596 240.622 38.804C241.995 41.0129 244.018 42.6749 246.602 43.9073C251.744 46.3598 259.173 47.14 268.362 47.14V46.14ZM393.865 38L394.291 38.2622L394.594 37.7692L394.062 37.5406L393.865 38ZM388.937 46L388.722 46.4512L389.127 46.6449L389.363 46.2622L388.937 46ZM377.033 40.304L377.253 39.8552L377.005 39.7331L376.769 39.8791L377.033 40.304ZM343.881 21.04L343.98 21.5301L344.833 21.3579L344.255 20.7078L343.881 21.04ZM361.929 23.344L361.803 22.86L360.572 23.1795L361.691 23.784L361.929 23.344ZM374.473 29.488L374.265 29.9428L374.556 30.0758L374.799 29.867L374.473 29.488ZM381.705 21.616L381.881 21.1481L381.525 21.0138L381.301 21.3219L381.705 21.616ZM391.561 25.328L391.987 25.59L392.305 25.0738L391.737 24.8601L391.561 25.328ZM384.777 34.096L384.419 33.7471L383.911 34.2682L384.58 34.5554L384.777 34.096ZM354.953 18.928L354.643 19.3202L354.828 19.4664L355.058 19.4168L354.953 18.928ZM365.833 34.928L366.028 35.3884L367.031 34.9634L366.055 34.48L365.833 34.928ZM349.769 25.968L350.054 25.5571L349.868 25.4285L349.649 25.4825L349.769 25.968ZM393.439 37.7378L388.511 45.7378L389.363 46.2622L394.291 38.2622L393.439 37.7378ZM389.152 45.5488C384.859 43.4983 380.898 41.6457 377.253 39.8552L376.813 40.7528C380.464 42.5463 384.439 44.4057 388.722 46.4512L389.152 45.5488ZM376.769 39.8791C369.95 44.1098 361.981 46.14 352.841 46.14V47.14C362.133 47.14 370.292 45.0742 377.297 40.7289L376.769 39.8791ZM352.841 46.14C344.878 46.14 339.373 44.879 335.874 42.6958C332.412 40.5362 330.877 37.4532 330.877 33.648H329.877C329.877 37.7788 331.574 41.1918 335.344 43.5442C339.077 45.873 344.804 47.14 352.841 47.14V46.14ZM330.877 33.648C330.877 29.718 332.508 27.0443 334.938 25.1721C337.393 23.2811 340.68 22.1964 343.98 21.5301L343.782 20.5499C340.426 21.2276 336.961 22.3509 334.328 24.3799C331.67 26.4277 329.877 29.386 329.877 33.648H330.877ZM344.255 20.7078C341.767 17.909 340.669 15.1443 340.669 11.824H339.669C339.669 15.4157 340.875 18.411 343.507 21.3722L344.255 20.7078ZM340.669 11.824C340.669 8.32997 342.247 5.6737 345.326 3.86299C348.439 2.03229 353.104 1.06 359.241 1.06V0.0599976C353.026 0.0599976 348.155 1.0397 344.82 3.001C341.451 4.98229 339.669 7.95802 339.669 11.824H340.669ZM359.241 1.06C364.371 1.06 368.988 2.02729 372.302 3.79326C375.612 5.55708 377.557 8.07235 377.557 11.184H378.557C378.557 7.57564 376.278 4.77892 372.772 2.91073C369.27 1.04471 364.479 0.0599976 359.241 0.0599976V1.06ZM377.557 11.184C377.557 14.0216 376.168 16.2675 373.497 18.1514C370.804 20.0501 366.844 21.5521 361.803 22.86L362.055 23.828C367.126 22.5119 371.23 20.9739 374.073 18.9686C376.938 16.9485 378.557 14.4264 378.557 11.184H377.557ZM361.691 23.784C364.904 25.5189 369.075 27.5719 374.265 29.9428L374.681 29.0332C369.503 26.6681 365.354 24.6251 362.167 22.904L361.691 23.784ZM374.799 29.867C377.582 27.4723 380.04 24.7554 382.109 21.9101L381.301 21.3219C379.274 24.1086 376.868 26.7677 374.147 29.109L374.799 29.867ZM381.529 22.0839L391.385 25.7959L391.737 24.8601L381.881 21.1481L381.529 22.0839ZM391.135 25.066C389.106 28.3638 386.824 31.2785 384.419 33.7471L385.135 34.4449C387.594 31.9215 389.92 28.9482 391.987 25.59L391.135 25.066ZM384.58 34.5554L393.668 38.4594L394.062 37.5406L384.974 33.6366L384.58 34.5554ZM359.241 8.124C356.746 8.124 354.621 8.46179 353.1 9.24332C352.334 9.63727 351.708 10.1512 351.274 10.8042C350.837 11.4604 350.613 12.2305 350.613 13.104H351.613C351.613 12.4095 351.789 11.8356 352.106 11.3578C352.426 10.8768 352.908 10.4667 353.558 10.1327C354.869 9.4582 356.808 9.124 359.241 9.124V8.124ZM350.613 13.104C350.613 15.1263 351.849 17.111 354.643 19.3202L355.263 18.5358C352.553 16.393 351.613 14.6657 351.613 13.104H350.613ZM355.058 19.4168C358.489 18.6792 361.578 17.8214 363.819 16.7381C366.018 15.6749 367.613 14.2879 367.613 12.4H366.613C366.613 13.6481 365.552 14.7891 363.383 15.8379C361.256 16.8666 358.265 17.7048 354.848 18.4392L355.058 19.4168ZM367.613 12.4C367.613 10.9304 366.704 9.84136 365.239 9.14807C363.791 8.46267 361.738 8.124 359.241 8.124V9.124C361.672 9.124 363.555 9.45733 364.811 10.0519C366.05 10.6386 366.613 11.4376 366.613 12.4H367.613ZM353.289 37.988C357.969 37.988 362.195 37.0126 366.028 35.3884L365.638 34.4676C361.919 36.0434 357.825 36.988 353.289 36.988V37.988ZM366.055 34.48C359.209 31.0888 353.989 28.2865 350.054 25.5571L349.484 26.3789C353.485 29.1535 358.761 31.9832 365.611 35.376L366.055 34.48ZM349.649 25.4825C347.304 26.0609 345.129 26.7634 343.532 27.7416C341.927 28.7247 340.821 30.044 340.821 31.856H341.821C341.821 30.532 342.603 29.4833 344.054 28.5944C345.513 27.7006 347.562 27.0271 349.889 26.4535L349.649 25.4825ZM340.821 31.856C340.821 32.968 341.146 33.9327 341.769 34.742C342.387 35.5445 343.277 36.1675 344.37 36.6426C346.545 37.5879 349.62 37.988 353.289 37.988V36.988C349.662 36.988 346.753 36.5881 344.768 35.7254C343.781 35.2965 343.047 34.7635 342.561 34.132C342.08 33.5073 341.821 32.76 341.821 31.856H340.821ZM471.251 32.688L471.068 32.2227L470.51 32.4422L470.826 32.9515L471.251 32.688ZM479.507 46V46.5H480.405L479.932 45.7365L479.507 46ZM465.939 46L465.511 46.2586L465.657 46.5H465.939V46ZM458.707 34.032L459.135 33.7734L458.989 33.532H458.707V34.032ZM440.147 34.032V33.532H439.647V34.032H440.147ZM440.147 46V46.5H440.647V46H440.147ZM428.627 46H428.127V46.5H428.627V46ZM428.627 1.2V0.699997H428.127V1.2H428.627ZM440.147 10.864V10.364H439.647V10.864H440.147ZM440.147 24.368H439.647V24.868H440.147V24.368ZM480.479 17.648C480.479 24.7514 476.881 29.9346 471.068 32.2227L471.434 33.1533C477.653 30.7054 481.479 25.1366 481.479 17.648H480.479ZM470.826 32.9515L479.082 46.2635L479.932 45.7365L471.676 32.4245L470.826 32.9515ZM479.507 45.5H465.939V46.5H479.507V45.5ZM466.367 45.7414L459.135 33.7734L458.279 34.2906L465.511 46.2586L466.367 45.7414ZM458.707 33.532H440.147V34.532H458.707V33.532ZM439.647 34.032V46H440.647V34.032H439.647ZM440.147 45.5H428.627V46.5H440.147V45.5ZM429.127 46V1.2H428.127V46H429.127ZM428.627 1.7H463.827V0.699997H428.627V1.7ZM463.827 1.7C468.809 1.7 472.966 3.28079 475.875 6.04257C478.78 8.80181 480.479 12.7773 480.479 17.648H481.479C481.479 12.5347 479.69 8.28619 476.563 5.31743C473.44 2.3512 469.021 0.699997 463.827 0.699997V1.7ZM439.647 10.864V24.368H440.647V10.864H439.647ZM440.147 24.868H460.627V23.868H440.147V24.868ZM460.627 24.868C462.33 24.868 464.657 24.8766 466.553 23.98C467.517 23.5239 468.379 22.8309 468.996 21.7872C469.61 20.7473 469.959 19.394 469.959 17.648H468.959C468.959 19.262 468.636 20.4287 468.134 21.2788C467.635 22.1251 466.937 22.692 466.125 23.076C464.469 23.8594 462.38 23.868 460.627 23.868V24.868ZM469.959 17.648C469.959 15.8867 469.61 14.5221 468.997 13.4736C468.381 12.421 467.519 11.7214 466.554 11.2608C464.658 10.3553 462.33 10.364 460.627 10.364V11.364C462.38 11.364 464.468 11.3727 466.124 12.1632C466.935 12.5506 467.633 13.123 468.133 13.9784C468.636 14.8379 468.959 16.0172 468.959 17.648H469.959ZM460.627 10.364H440.147V11.364H460.627V10.364ZM485.127 1.2V0.699997H484.627V1.2H485.127ZM496.647 1.2H497.147V0.699997H496.647V1.2ZM529.927 1.2V0.699997H529.427V1.2H529.927ZM541.447 1.2H541.947V0.699997H541.447V1.2ZM540.947 23.536C540.947 31.2214 538.847 36.831 534.414 40.5364C529.962 44.2584 523.063 46.14 513.287 46.14V47.14C523.159 47.14 530.34 45.2456 535.056 41.3036C539.791 37.345 541.947 31.4026 541.947 23.536H540.947ZM513.287 46.14C503.478 46.14 496.579 44.2738 492.136 40.5603C487.712 36.8637 485.627 31.2551 485.627 23.536H484.627C484.627 31.4329 486.766 37.3763 491.494 41.3277C496.203 45.2622 503.384 47.14 513.287 47.14V46.14ZM485.627 23.536V1.2H484.627V23.536H485.627ZM485.127 1.7H496.647V0.699997H485.127V1.7ZM496.147 1.2V23.536H497.147V1.2H496.147ZM496.147 23.536C496.147 26.7004 496.578 30.2212 499.002 32.9407C501.433 35.6685 505.763 37.476 513.287 37.476V36.476C505.899 36.476 501.909 34.6995 499.748 32.2753C497.58 29.8428 497.147 26.6436 497.147 23.536H496.147ZM513.287 37.476C520.812 37.476 525.142 35.6518 527.573 32.9161C529.996 30.1891 530.427 26.6693 530.427 23.536H529.427C529.427 26.6107 528.994 29.8109 526.825 32.2519C524.664 34.6842 520.674 36.476 513.287 36.476V37.476ZM530.427 23.536V1.2H529.427V23.536H530.427ZM529.927 1.7H541.447V0.699997H529.927V1.7ZM540.947 1.2V23.536H541.947V1.2H540.947ZM557.772 36.336H557.272V36.836H557.772V36.336ZM592.332 36.336H592.832V35.836H592.332V36.336ZM592.332 46V46.5H592.832V46H592.332ZM546.252 46H545.752V46.5H546.252V46ZM546.252 1.2V0.699997H545.752V1.2H546.252ZM557.772 1.2H558.272V0.699997H557.772V1.2ZM557.772 36.836H592.332V35.836H557.772V36.836ZM591.832 36.336V46H592.832V36.336H591.832ZM592.332 45.5H546.252V46.5H592.332V45.5ZM546.752 46V1.2H545.752V46H546.752ZM546.252 1.7H557.772V0.699997H546.252V1.7ZM557.272 1.2V36.336H558.272V1.2H557.272ZM644.175 10.352V10.852H644.675V10.352H644.175ZM608.335 10.352V9.852H607.835V10.352H608.335ZM608.335 19.44H607.835V19.94H608.335V19.44ZM644.175 19.44H644.675V18.94H644.175V19.44ZM644.175 27.76V28.26H644.675V27.76H644.175ZM608.335 27.76V27.26H607.835V27.76H608.335ZM608.335 36.848H607.835V37.348H608.335V36.848ZM644.175 36.848H644.675V36.348H644.175V36.848ZM644.175 46V46.5H644.675V46H644.175ZM596.815 46H596.315V46.5H596.815V46ZM596.815 1.2V0.699997H596.315V1.2H596.815ZM644.175 1.2H644.675V0.699997H644.175V1.2ZM644.175 9.852H608.335V10.852H644.175V9.852ZM607.835 10.352V19.44H608.835V10.352H607.835ZM608.335 19.94H644.175V18.94H608.335V19.94ZM643.675 19.44V27.76H644.675V19.44H643.675ZM644.175 27.26H608.335V28.26H644.175V27.26ZM607.835 27.76V36.848H608.835V27.76H607.835ZM608.335 37.348H644.175V36.348H608.335V37.348ZM643.675 36.848V46H644.675V36.848H643.675ZM644.175 45.5H596.815V46.5H644.175V45.5ZM597.315 46V1.2H596.315V46H597.315ZM596.815 1.7H644.175V0.699997H596.815V1.7ZM643.675 1.2V10.352H644.675V1.2H643.675ZM647.737 30.576V30.076H647.237V30.576H647.737ZM659.257 30.576H659.757V30.076H659.257V30.576ZM676.345 27.568L676.369 27.0686L676.368 27.0685L676.345 27.568ZM703.033 15.856V16.356H703.533V15.856H703.033ZM691.513 15.856H691.013V16.356H691.513V15.856ZM676.345 18.992L676.316 19.4911L676.318 19.4913L676.345 18.992ZM647.737 31.076H659.257V30.076H647.737V31.076ZM658.757 30.576C658.757 31.8281 659.011 32.9585 659.671 33.934C660.329 34.9083 661.357 35.6773 662.812 36.2709C665.696 37.4476 670.393 37.988 677.689 37.988V36.988C670.393 36.988 665.874 36.4404 663.19 35.3451C661.861 34.8027 661.017 34.1397 660.499 33.374C659.983 32.6095 659.757 31.6919 659.757 30.576H658.757ZM677.689 37.988C683.734 37.988 687.743 37.6547 690.249 36.8522C691.51 36.4487 692.44 35.9117 693.054 35.1939C693.678 34.4645 693.933 33.5973 693.933 32.624H692.933C692.933 33.4107 692.732 34.0315 692.294 34.5441C691.846 35.0683 691.108 35.5273 689.945 35.8998C687.603 36.6493 683.74 36.988 677.689 36.988V37.988ZM693.933 32.624C693.933 31.6436 693.765 30.7765 693.199 30.0576C692.639 29.3463 691.748 28.8566 690.476 28.4878C687.951 27.7557 683.611 27.4195 676.369 27.0686L676.321 28.0674C683.607 28.4205 687.811 28.7563 690.198 29.4482C691.382 29.7914 692.039 30.2017 692.413 30.6763C692.781 31.1435 692.933 31.7484 692.933 32.624H693.933ZM676.368 27.0685C666.605 26.6204 659.885 25.6282 655.612 23.5427C653.491 22.5072 651.995 21.2122 651.025 19.5974C650.052 17.9804 649.581 16.0001 649.581 13.552H648.581C648.581 16.1279 649.078 18.2996 650.167 20.1126C651.259 21.9278 652.919 23.3408 655.174 24.4413C659.653 26.6278 666.565 27.6196 676.322 28.0675L676.368 27.0685ZM649.581 13.552C649.581 11.1776 650.184 9.23903 651.319 7.65526C652.458 6.06703 654.156 4.80048 656.401 3.81808C660.909 1.84585 667.525 1.06 675.897 1.06V0.0599976C667.501 0.0599976 660.709 0.842144 656.001 2.90192C653.638 3.93552 651.776 5.30097 650.507 7.07274C649.234 8.84897 648.581 10.9983 648.581 13.552H649.581ZM675.897 1.06C684.321 1.06 691.006 2.11595 695.57 4.4992C697.843 5.68654 699.577 7.19685 700.745 9.06052C701.912 10.9228 702.533 13.1679 702.533 15.856H703.533C703.533 13.0081 702.874 10.5732 701.593 8.52947C700.313 6.48714 698.431 4.86546 696.032 3.6128C691.252 1.11604 684.369 0.0599976 675.897 0.0599976V1.06ZM703.033 15.356H691.513V16.356H703.033V15.356ZM692.013 15.856C692.013 14.5361 691.681 13.4179 690.946 12.5037C690.217 11.5972 689.131 10.9404 687.713 10.4622C684.897 9.51251 680.594 9.212 674.617 9.212V10.212C680.608 10.212 684.753 10.5195 687.393 11.4098C688.703 11.8516 689.597 12.4228 690.166 13.1303C690.729 13.8301 691.013 14.7119 691.013 15.856H692.013ZM674.617 9.212C668.963 9.212 665.38 9.48025 663.205 10.1971C662.105 10.5595 661.31 11.0531 660.799 11.7333C660.283 12.4181 660.101 13.229 660.101 14.128H661.101C661.101 13.363 661.255 12.7899 661.597 12.3347C661.944 11.8749 662.529 11.4724 663.517 11.1469C665.518 10.4877 668.943 10.212 674.617 10.212V9.212ZM660.101 14.128C660.101 15.0557 660.282 15.874 660.838 16.5544C661.385 17.2239 662.239 17.6904 663.434 18.0471C665.806 18.7554 669.809 19.1084 676.316 19.4911L676.374 18.4929C669.825 18.1076 665.956 17.7566 663.72 17.0889C662.611 16.7576 661.977 16.3681 661.612 15.9216C661.256 15.486 661.101 14.9283 661.101 14.128H660.101ZM676.318 19.4913C685.176 19.9727 692.244 20.4527 697.104 22.1986C699.52 23.0665 701.346 24.233 702.57 25.8302C703.791 27.4221 704.453 29.4917 704.453 32.24H705.453C705.453 29.3243 704.747 27.0259 703.364 25.2218C701.984 23.423 699.97 22.1655 697.442 21.2574C692.414 19.4513 685.178 18.9713 676.372 18.4927L676.318 19.4913ZM704.453 32.24C704.453 35.1503 703.766 37.4422 702.513 39.2547C701.258 41.0695 699.409 42.4434 697.02 43.4685C692.219 45.5284 685.335 46.14 677.049 46.14V47.14C685.339 47.14 692.407 46.5356 697.414 44.3875C699.929 43.3086 701.948 41.8305 703.335 39.8233C704.724 37.8138 705.453 35.3137 705.453 32.24H704.453ZM677.049 46.14C667.87 46.14 660.642 45.3522 655.72 43.0047C653.272 41.8371 651.411 40.2911 650.159 38.276C648.905 36.26 648.237 33.7366 648.237 30.576H647.237C647.237 33.8794 647.937 36.596 649.309 38.804C650.683 41.0129 652.706 42.6749 655.29 43.9073C660.432 46.3598 667.86 47.14 677.049 47.14V46.14Z" fill="url(#paint0_linear_5_8)" fill-opacity="0.76"/>
<defs>
<linearGradient id="paint0_linear_5_8" x1="389" y1="-12" x2="389" y2="48" gradientUnits="userSpaceOnUse">
<stop stop-color="#3AE91D"/>
<stop offset="0.515625" stop-color="#A6A6A6" stop-opacity="0"/>
<stop offset="1" stop-color="#33ED23" stop-opacity="0.67"/>
</linearGradient>
</defs>
</svg>
