<!-- <svg width="677" height="47" viewBox="0 0 677 47" fill="none" xmlns="http://www.w3.org/2000/svg">
<path d="M56.24 20.272V20.772H56.7865L56.738 20.2276L56.24 20.272ZM44.528 20.272L44.0336 20.3464L44.0976 20.772H44.528V20.272ZM44.528 26.8V26.3H44.097L44.0335 26.7263L44.528 26.8ZM56.24 26.8L56.738 26.8442L56.7863 26.3H56.24V26.8ZM0.612 23.536C0.612 16.2077 2.69332 10.6254 7.12375 6.86103C11.5707 3.08264 18.4715 1.06 28.272 1.06V0.0599976C18.3605 0.0599976 11.1813 2.10136 6.47625 6.09896C1.75468 10.1106 -0.388 16.0163 -0.388 23.536H0.612ZM28.272 1.06C37.1475 1.06 43.7318 2.74782 48.2285 5.97425C52.7048 9.18603 55.1763 13.9688 55.742 20.3164L56.738 20.2276C56.1517 13.6472 53.5672 8.57397 48.8115 5.16175C44.0762 1.76417 37.2525 0.0599976 28.272 0.0599976V1.06ZM56.24 19.772H44.528V20.772H56.24V19.772ZM45.0224 20.1976C44.4585 16.4488 42.7171 13.7977 39.8459 12.1053C37.005 10.4307 33.1074 9.724 28.272 9.724V10.724C33.0367 10.724 36.723 11.4253 39.3381 12.9667C41.9229 14.4903 43.5096 16.8632 44.0336 20.3464L45.0224 20.1976ZM28.272 9.724C22.3756 9.724 18.0746 10.7675 15.2453 13.0595C12.3911 15.3716 11.132 18.8713 11.132 23.536H12.132C12.132 19.0487 13.3369 15.8924 15.8747 13.8365C18.4374 11.7605 22.4564 10.724 28.272 10.724V9.724ZM11.132 23.536C11.132 28.2334 12.4074 31.7636 15.2678 34.0993C18.1046 36.4158 22.4056 37.476 28.272 37.476V36.476C22.4904 36.476 18.4714 35.4242 15.9002 33.3247C13.3526 31.2444 12.132 28.0546 12.132 23.536H11.132ZM28.272 37.476C33.0773 37.476 36.9753 36.7527 39.8241 35.0534C42.7018 33.3369 44.4587 30.6545 45.0225 26.8737L44.0335 26.7263C43.5093 30.2415 41.9062 32.6471 39.3119 34.1946C36.6887 35.7593 33.0027 36.476 28.272 36.476V37.476ZM44.528 27.3H56.24V26.3H44.528V27.3ZM55.742 26.7558C55.1762 33.1364 52.7039 37.9514 48.2271 41.1868C43.7305 44.4365 37.1467 46.14 28.272 46.14V47.14C37.2533 47.14 44.0775 45.4195 48.8129 41.9972C53.5681 38.5606 56.1518 33.4556 56.738 26.8442L55.742 26.7558ZM28.272 46.14C18.4723 46.14 11.5719 44.1017 7.1249 40.2999C2.69377 36.5118 0.612 30.897 0.612 23.536H-0.388C-0.388 31.087 1.75423 37.0242 6.4751 41.06C11.1801 45.0823 18.3597 47.14 28.272 47.14V46.14ZM87.9595 46.14C78.1598 46.14 71.2594 44.1017 66.8124 40.2999C62.3813 36.5118 60.2995 30.897 60.2995 23.536H59.2995C59.2995 31.087 61.4417 37.0242 66.1626 41.06C70.8676 45.0823 78.0472 47.14 87.9595 47.14V46.14ZM60.2995 23.536C60.2995 16.2077 62.3808 10.6254 66.8112 6.86103C71.2582 3.08264 78.159 1.06 87.9595 1.06V0.0599976C78.048 0.0599976 70.8688 2.10136 66.1638 6.09896C61.4422 10.1106 59.2995 16.0163 59.2995 23.536H60.2995ZM87.9595 1.06C97.7267 1.06 104.628 3.09811 109.084 6.88498C113.523 10.6581 115.62 16.2413 115.62 23.536H116.62C116.62 16.0467 114.46 10.1419 109.731 6.12301C105.019 2.11789 97.8403 0.0599976 87.9595 0.0599976V1.06ZM115.62 23.536C115.62 30.8634 113.523 36.4791 109.083 40.276C104.627 44.0862 97.7259 46.14 87.9595 46.14V47.14C97.8411 47.14 105.02 45.0658 109.732 41.036C114.46 36.9929 116.62 31.0566 116.62 23.536H115.62ZM87.9595 37.476C93.9839 37.476 98.2884 36.4006 101.087 34.0724C103.909 31.7254 105.1 28.1932 105.1 23.536H104.1C104.1 28.0308 102.954 31.2186 100.448 33.3036C97.9186 35.4074 93.9031 36.476 87.9595 36.476V37.476ZM105.1 23.536C105.1 18.9116 103.925 15.4099 101.11 13.0864C98.3184 10.7827 94.0139 9.724 87.9595 9.724V10.724C93.9371 10.724 97.9526 11.7773 100.473 13.8576C102.97 15.9181 104.1 19.0724 104.1 23.536H105.1ZM87.9595 9.724C81.9066 9.724 77.6017 10.7662 74.8099 13.0618C71.9934 15.3778 70.8195 18.8806 70.8195 23.536H71.8195C71.8195 19.0394 72.9496 15.8862 75.4451 13.8342C77.9653 11.7618 81.9804 10.724 87.9595 10.724V9.724ZM70.8195 23.536C70.8195 28.2242 72.0098 31.7575 74.8324 34.097C77.6318 36.4171 81.9366 37.476 87.9595 37.476V36.476C82.0144 36.476 77.9992 35.4229 75.4706 33.327C72.9652 31.2505 71.8195 28.0638 71.8195 23.536H70.8195ZM188.923 1.2H189.423V0.699997H188.923V1.2ZM188.923 46V46.5H189.423V46H188.923ZM177.403 46H176.903V46.5H177.403V46ZM177.403 15.28H177.903V13.4908L176.975 15.0208L177.403 15.28ZM158.779 46V46.5H159.06L159.206 46.2592L158.779 46ZM150.458 46L150.031 46.2592L150.177 46.5H150.458V46ZM131.835 15.28L132.262 15.0208L131.335 13.4908V15.28H131.835ZM131.835 46V46.5H132.335V46H131.835ZM120.315 46H119.815V46.5H120.315V46ZM120.315 1.2V0.699997H119.815V1.2H120.315ZM135.867 1.2L136.297 0.944929L136.151 0.699997H135.867V1.2ZM154.619 32.816L154.188 33.0711L154.619 33.7961L155.049 33.0711L154.619 32.816ZM173.371 1.2V0.699997H173.086L172.94 0.944929L173.371 1.2ZM188.423 1.2V46H189.423V1.2H188.423ZM188.923 45.5H177.403V46.5H188.923V45.5ZM177.903 46V15.28H176.903V46H177.903ZM176.975 15.0208L158.351 45.7408L159.206 46.2592L177.83 15.5392L176.975 15.0208ZM158.779 45.5H150.458V46.5H158.779V45.5ZM150.886 45.7408L132.262 15.0208L131.407 15.5392L150.031 46.2592L150.886 45.7408ZM131.335 15.28V46H132.335V15.28H131.335ZM131.835 45.5H120.315V46.5H131.835V45.5ZM120.815 46V1.2H119.815V46H120.815ZM120.315 1.7H135.867V0.699997H120.315V1.7ZM135.436 1.45507L154.188 33.0711L155.049 32.5609L136.297 0.944929L135.436 1.45507ZM155.049 33.0711L173.801 1.45507L172.94 0.944929L154.188 32.5609L155.049 33.0711ZM173.371 1.7H188.923V0.699997H173.371V1.7ZM205.585 34.032V33.532H205.085V34.032H205.585ZM205.585 46V46.5H206.085V46H205.585ZM194.065 46H193.565V46.5H194.065V46ZM194.065 1.2V0.699997H193.565V1.2H194.065ZM205.585 10.864V10.364H205.085V10.864H205.585ZM205.585 24.368H205.085V24.868H205.585V24.368ZM229.265 1.7C234.246 1.7 238.404 3.28079 241.312 6.04257C244.218 8.80181 245.917 12.7773 245.917 17.648H246.917C246.917 12.5347 245.127 8.28619 242.001 5.31743C238.877 2.3512 234.459 0.699997 229.265 0.699997V1.7ZM245.917 17.648C245.917 22.5185 244.218 26.4774 241.313 29.2205C238.405 31.9664 234.248 33.532 229.265 33.532V34.532C234.457 34.532 238.876 32.8976 242 29.9475C245.127 26.9946 246.917 22.7615 246.917 17.648H245.917ZM229.265 33.532H205.585V34.532H229.265V33.532ZM205.085 34.032V46H206.085V34.032H205.085ZM205.585 45.5H194.065V46.5H205.585V45.5ZM194.565 46V1.2H193.565V46H194.565ZM194.065 1.7H229.265V0.699997H194.065V1.7ZM226.065 24.868C227.768 24.868 230.095 24.8766 231.99 23.98C232.954 23.5239 233.817 22.8309 234.433 21.7872C235.047 20.7473 235.397 19.394 235.397 17.648H234.397C234.397 19.262 234.074 20.4287 233.572 21.2788C233.072 22.1251 232.375 22.692 231.563 23.076C229.906 23.8594 227.817 23.868 226.065 23.868V24.868ZM235.397 17.648C235.397 15.8867 235.047 14.5221 234.434 13.4736C233.818 12.421 232.957 11.7214 231.992 11.2608C230.096 10.3553 227.768 10.364 226.065 10.364V11.364C227.817 11.364 229.905 11.3727 231.561 12.1632C232.372 12.5506 233.071 13.123 233.571 13.9784C234.074 14.8379 234.397 16.0172 234.397 17.648H235.397ZM226.065 10.364H205.585V11.364H226.065V10.364ZM205.085 10.864V24.368H206.085V10.864H205.085ZM205.585 24.868H226.065V23.868H205.585V24.868ZM297.925 10.352V10.852H298.425V10.352H297.925ZM262.085 10.352V9.852H261.585V10.352H262.085ZM262.085 19.44H261.585V19.94H262.085V19.44ZM297.925 19.44H298.425V18.94H297.925V19.44ZM297.925 27.76V28.26H298.425V27.76H297.925ZM262.085 27.76V27.26H261.585V27.76H262.085ZM262.085 36.848H261.585V37.348H262.085V36.848ZM297.925 36.848H298.425V36.348H297.925V36.848ZM297.925 46V46.5H298.425V46H297.925ZM250.565 46H250.065V46.5H250.565V46ZM250.565 1.2V0.699997H250.065V1.2H250.565ZM297.925 1.2H298.425V0.699997H297.925V1.2ZM297.925 9.852H262.085V10.852H297.925V9.852ZM261.585 10.352V19.44H262.585V10.352H261.585ZM262.085 19.94H297.925V18.94H262.085V19.94ZM297.425 19.44V27.76H298.425V19.44H297.425ZM297.925 27.26H262.085V28.26H297.925V27.26ZM261.585 27.76V36.848H262.585V27.76H261.585ZM262.085 37.348H297.925V36.348H262.085V37.348ZM297.425 36.848V46H298.425V36.848H297.425ZM297.925 45.5H250.565V46.5H297.925V45.5ZM251.065 46V1.2H250.065V46H251.065ZM250.565 1.7H297.925V0.699997H250.565V1.7ZM297.425 1.2V10.352H298.425V1.2H297.425ZM356.152 1.2H356.652V0.699997H356.152V1.2ZM356.152 10.864V11.364H356.652V10.864H356.152ZM334.392 10.864V10.364H333.892V10.864H334.392ZM334.392 46V46.5H334.892V46H334.392ZM322.872 46H322.372V46.5H322.872V46ZM322.872 10.864H323.372V10.364H322.872V10.864ZM301.112 10.864H300.612V11.364H301.112V10.864ZM301.112 1.2V0.699997H300.612V1.2H301.112ZM355.652 1.2V10.864H356.652V1.2H355.652ZM356.152 10.364H334.392V11.364H356.152V10.364ZM333.892 10.864V46H334.892V10.864H333.892ZM334.392 45.5H322.872V46.5H334.392V45.5ZM323.372 46V10.864H322.372V46H323.372ZM322.872 10.364H301.112V11.364H322.872V10.364ZM301.612 10.864V1.2H300.612V10.864H301.612ZM301.112 1.7H356.152V0.699997H301.112V1.7ZM371.46 1.2H371.96V0.699997H371.46V1.2ZM371.46 46V46.5H371.96V46H371.46ZM359.94 46H359.44V46.5H359.94V46ZM359.94 1.2V0.699997H359.44V1.2H359.94ZM370.96 1.2V46H371.96V1.2H370.96ZM371.46 45.5H359.94V46.5H371.46V45.5ZM360.44 46V1.2H359.44V46H360.44ZM359.94 1.7H371.46V0.699997H359.94V1.7ZM430.277 1.2H430.777V0.699997H430.277V1.2ZM430.277 10.864V11.364H430.777V10.864H430.277ZM408.517 10.864V10.364H408.017V10.864H408.517ZM408.517 46V46.5H409.017V46H408.517ZM396.997 46H396.497V46.5H396.997V46ZM396.997 10.864H397.497V10.364H396.997V10.864ZM375.237 10.864H374.737V11.364H375.237V10.864ZM375.237 1.2V0.699997H374.737V1.2H375.237ZM429.777 1.2V10.864H430.777V1.2H429.777ZM430.277 10.364H408.517V11.364H430.277V10.364ZM408.017 10.864V46H409.017V10.864H408.017ZM408.517 45.5H396.997V46.5H408.517V45.5ZM397.497 46V10.864H396.497V46H397.497ZM396.997 10.364H375.237V11.364H396.997V10.364ZM375.737 10.864V1.2H374.737V10.864H375.737ZM375.237 1.7H430.277V0.699997H375.237V1.7ZM445.585 1.2H446.085V0.699997H445.585V1.2ZM445.585 46V46.5H446.085V46H445.585ZM434.065 46H433.565V46.5H434.065V46ZM434.065 1.2V0.699997H433.565V1.2H434.065ZM445.085 1.2V46H446.085V1.2H445.085ZM445.585 45.5H434.065V46.5H445.585V45.5ZM434.565 46V1.2H433.565V46H434.565ZM434.065 1.7H445.585V0.699997H434.065V1.7ZM477.585 46.14C467.785 46.14 460.884 44.1017 456.437 40.2999C452.006 36.5118 449.924 30.897 449.924 23.536H448.924C448.924 31.087 451.067 37.0242 455.788 41.06C460.493 45.0823 467.672 47.14 477.585 47.14V46.14ZM449.924 23.536C449.924 16.2077 452.006 10.6254 456.436 6.86103C460.883 3.08264 467.784 1.06 477.585 1.06V0.0599976C467.673 0.0599976 460.494 2.10136 455.789 6.09896C451.067 10.1106 448.924 16.0163 448.924 23.536H449.924ZM477.585 1.06C487.352 1.06 494.253 3.09811 498.709 6.88498C503.148 10.6581 505.245 16.2413 505.245 23.536H506.245C506.245 16.0467 504.085 10.1419 499.356 6.12301C494.644 2.11789 487.465 0.0599976 477.585 0.0599976V1.06ZM505.245 23.536C505.245 30.8634 503.148 36.4791 498.708 40.276C494.252 44.0862 487.351 46.14 477.585 46.14V47.14C487.466 47.14 494.645 45.0658 499.357 41.036C504.085 36.9929 506.245 31.0566 506.245 23.536H505.245ZM477.585 37.476C483.609 37.476 487.913 36.4006 490.712 34.0724C493.534 31.7254 494.725 28.1932 494.725 23.536H493.725C493.725 28.0308 492.579 31.2186 490.073 33.3036C487.544 35.4074 483.528 36.476 477.585 36.476V37.476ZM494.725 23.536C494.725 18.9116 493.55 15.4099 490.735 13.0864C487.943 10.7827 483.639 9.724 477.585 9.724V10.724C483.562 10.724 487.578 11.7773 490.098 13.8576C492.595 15.9181 493.725 19.0724 493.725 23.536H494.725ZM477.585 9.724C471.532 9.724 467.227 10.7662 464.435 13.0618C461.618 15.3778 460.445 18.8806 460.445 23.536H461.445C461.445 19.0394 462.575 15.8862 465.07 13.8342C467.59 11.7618 471.605 10.724 477.585 10.724V9.724ZM460.445 23.536C460.445 28.2242 461.635 31.7575 464.457 34.097C467.257 36.4171 471.562 37.476 477.585 37.476V36.476C471.639 36.476 467.624 35.4229 465.096 33.327C462.59 31.2505 461.445 28.0638 461.445 23.536H460.445ZM556.148 1.2V0.699997H555.648V1.2H556.148ZM567.668 1.2H568.168V0.699997H567.668V1.2ZM567.668 46V46.5H568.168V46H567.668ZM551.988 46L551.617 46.3362L551.766 46.5H551.988V46ZM521.46 12.4L521.83 12.0638L520.96 11.1061V12.4H521.46ZM521.46 46V46.5H521.96V46H521.46ZM509.94 46H509.44V46.5H509.94V46ZM509.94 1.2V0.699997H509.44V1.2H509.94ZM525.556 1.2L525.926 0.863731L525.777 0.699997H525.556V1.2ZM556.148 34.864L555.777 35.2003L556.648 36.1577V34.864H556.148ZM556.148 1.7H567.668V0.699997H556.148V1.7ZM567.168 1.2V46H568.168V1.2H567.168ZM567.668 45.5H551.988V46.5H567.668V45.5ZM552.358 45.6638L521.83 12.0638L521.089 12.7362L551.617 46.3362L552.358 45.6638ZM520.96 12.4V46H521.96V12.4H520.96ZM521.46 45.5H509.94V46.5H521.46V45.5ZM510.44 46V1.2H509.44V46H510.44ZM509.94 1.7H525.556V0.699997H509.94V1.7ZM525.185 1.53626L555.777 35.2003L556.518 34.5277L525.926 0.863731L525.185 1.53626ZM556.648 34.864V1.2H555.648V34.864H556.648ZM613.96 1.2H614.46V0.699997H613.96V1.2ZM613.96 46V46.5H614.46V46H613.96ZM602.44 46H601.94V46.5H602.44V46ZM602.44 1.2V0.699997H601.94V1.2H602.44ZM613.46 1.2V46H614.46V1.2H613.46ZM613.96 45.5H602.44V46.5H613.96V45.5ZM602.94 46V1.2H601.94V46H602.94ZM602.44 1.7H613.96V0.699997H602.44V1.7ZM665.273 1.2V0.699997H664.773V1.2H665.273ZM676.793 1.2H677.293V0.699997H676.793V1.2ZM676.793 46V46.5H677.293V46H676.793ZM661.113 46L660.742 46.3362L660.891 46.5H661.113V46ZM630.585 12.4L630.955 12.0638L630.085 11.1061V12.4H630.585ZM630.585 46V46.5H631.085V46H630.585ZM619.065 46H618.565V46.5H619.065V46ZM619.065 1.2V0.699997H618.565V1.2H619.065ZM634.681 1.2L635.051 0.863731L634.902 0.699997H634.681V1.2ZM665.273 34.864L664.902 35.2003L665.773 36.1577V34.864H665.273ZM665.273 1.7H676.793V0.699997H665.273V1.7ZM676.293 1.2V46H677.293V1.2H676.293ZM676.793 45.5H661.113V46.5H676.793V45.5ZM661.483 45.6638L630.955 12.0638L630.214 12.7362L660.742 46.3362L661.483 45.6638ZM630.085 12.4V46H631.085V12.4H630.085ZM630.585 45.5H619.065V46.5H630.585V45.5ZM619.565 46V1.2H618.565V46H619.565ZM619.065 1.7H634.681V0.699997H619.065V1.7ZM634.31 1.53626L664.902 35.2003L665.643 34.5277L635.051 0.863731L634.31 1.53626ZM665.773 34.864V1.2H664.773V34.864H665.773Z" fill="url(#paint0_linear_1_2)" fill-opacity="0.76"/>
<defs>
<linearGradient id="paint0_linear_1_2" x1="341.5" y1="-12" x2="341.5" y2="48" gradientUnits="userSpaceOnUse">
<stop stop-color="#AEAEAE"/>
<stop offset="0.515625" stop-color="#AEAEAE" stop-opacity="0"/>
<stop offset="1" stop-color="#AEAEAE" stop-opacity="0.67"/>
</linearGradient>
</defs>
</svg> -->



<!-- another one -->

<svg width="677" height="47" viewBox="0 0 677 47" fill="none" xmlns="http://www.w3.org/2000/svg">
<path d="M56.24 20.272V20.772H56.7865L56.738 20.2276L56.24 20.272ZM44.528 20.272L44.0336 20.3464L44.0976 20.772H44.528V20.272ZM44.528 26.8V26.3H44.097L44.0335 26.7263L44.528 26.8ZM56.24 26.8L56.738 26.8442L56.7863 26.3H56.24V26.8ZM0.612 23.536C0.612 16.2077 2.69332 10.6254 7.12375 6.86103C11.5707 3.08264 18.4715 1.06 28.272 1.06V0.0599976C18.3605 0.0599976 11.1813 2.10136 6.47625 6.09896C1.75468 10.1106 -0.388 16.0163 -0.388 23.536H0.612ZM28.272 1.06C37.1475 1.06 43.7318 2.74782 48.2285 5.97425C52.7048 9.18603 55.1763 13.9688 55.742 20.3164L56.738 20.2276C56.1517 13.6472 53.5672 8.57397 48.8115 5.16175C44.0762 1.76417 37.2525 0.0599976 28.272 0.0599976V1.06ZM56.24 19.772H44.528V20.772H56.24V19.772ZM45.0224 20.1976C44.4585 16.4488 42.7171 13.7977 39.8459 12.1053C37.005 10.4307 33.1074 9.724 28.272 9.724V10.724C33.0367 10.724 36.723 11.4253 39.3381 12.9667C41.9229 14.4903 43.5096 16.8632 44.0336 20.3464L45.0224 20.1976ZM28.272 9.724C22.3756 9.724 18.0746 10.7675 15.2453 13.0595C12.3911 15.3716 11.132 18.8713 11.132 23.536H12.132C12.132 19.0487 13.3369 15.8924 15.8747 13.8365C18.4374 11.7605 22.4564 10.724 28.272 10.724V9.724ZM11.132 23.536C11.132 28.2334 12.4074 31.7636 15.2678 34.0993C18.1046 36.4158 22.4056 37.476 28.272 37.476V36.476C22.4904 36.476 18.4714 35.4242 15.9002 33.3247C13.3526 31.2444 12.132 28.0546 12.132 23.536H11.132ZM28.272 37.476C33.0773 37.476 36.9753 36.7527 39.8241 35.0534C42.7018 33.3369 44.4587 30.6545 45.0225 26.8737L44.0335 26.7263C43.5093 30.2415 41.9062 32.6471 39.3119 34.1946C36.6887 35.7593 33.0027 36.476 28.272 36.476V37.476ZM44.528 27.3H56.24V26.3H44.528V27.3ZM55.742 26.7558C55.1762 33.1364 52.7039 37.9514 48.2271 41.1868C43.7305 44.4365 37.1467 46.14 28.272 46.14V47.14C37.2533 47.14 44.0775 45.4195 48.8129 41.9972C53.5681 38.5606 56.1518 33.4556 56.738 26.8442L55.742 26.7558ZM28.272 46.14C18.4723 46.14 11.5719 44.1017 7.1249 40.2999C2.69377 36.5118 0.612 30.897 0.612 23.536H-0.388C-0.388 31.087 1.75423 37.0242 6.4751 41.06C11.1801 45.0823 18.3597 47.14 28.272 47.14V46.14ZM87.9595 46.14C78.1598 46.14 71.2594 44.1017 66.8124 40.2999C62.3813 36.5118 60.2995 30.897 60.2995 23.536H59.2995C59.2995 31.087 61.4417 37.0242 66.1626 41.06C70.8676 45.0823 78.0472 47.14 87.9595 47.14V46.14ZM60.2995 23.536C60.2995 16.2077 62.3808 10.6254 66.8112 6.86103C71.2582 3.08264 78.159 1.06 87.9595 1.06V0.0599976C78.048 0.0599976 70.8688 2.10136 66.1638 6.09896C61.4422 10.1106 59.2995 16.0163 59.2995 23.536H60.2995ZM87.9595 1.06C97.7267 1.06 104.628 3.09811 109.084 6.88498C113.523 10.6581 115.62 16.2413 115.62 23.536H116.62C116.62 16.0467 114.46 10.1419 109.731 6.12301C105.019 2.11789 97.8403 0.0599976 87.9595 0.0599976V1.06ZM115.62 23.536C115.62 30.8634 113.523 36.4791 109.083 40.276C104.627 44.0862 97.7259 46.14 87.9595 46.14V47.14C97.8411 47.14 105.02 45.0658 109.732 41.036C114.46 36.9929 116.62 31.0566 116.62 23.536H115.62ZM87.9595 37.476C93.9839 37.476 98.2884 36.4006 101.087 34.0724C103.909 31.7254 105.1 28.1932 105.1 23.536H104.1C104.1 28.0308 102.954 31.2186 100.448 33.3036C97.9186 35.4074 93.9031 36.476 87.9595 36.476V37.476ZM105.1 23.536C105.1 18.9116 103.925 15.4099 101.11 13.0864C98.3184 10.7827 94.0139 9.724 87.9595 9.724V10.724C93.9371 10.724 97.9526 11.7773 100.473 13.8576C102.97 15.9181 104.1 19.0724 104.1 23.536H105.1ZM87.9595 9.724C81.9066 9.724 77.6017 10.7662 74.8099 13.0618C71.9934 15.3778 70.8195 18.8806 70.8195 23.536H71.8195C71.8195 19.0394 72.9496 15.8862 75.4451 13.8342C77.9653 11.7618 81.9804 10.724 87.9595 10.724V9.724ZM70.8195 23.536C70.8195 28.2242 72.0098 31.7575 74.8324 34.097C77.6318 36.4171 81.9366 37.476 87.9595 37.476V36.476C82.0144 36.476 77.9992 35.4229 75.4706 33.327C72.9652 31.2505 71.8195 28.0638 71.8195 23.536H70.8195ZM188.923 1.2H189.423V0.699997H188.923V1.2ZM188.923 46V46.5H189.423V46H188.923ZM177.403 46H176.903V46.5H177.403V46ZM177.403 15.28H177.903V13.4908L176.975 15.0208L177.403 15.28ZM158.779 46V46.5H159.06L159.206 46.2592L158.779 46ZM150.458 46L150.031 46.2592L150.177 46.5H150.458V46ZM131.835 15.28L132.262 15.0208L131.335 13.4908V15.28H131.835ZM131.835 46V46.5H132.335V46H131.835ZM120.315 46H119.815V46.5H120.315V46ZM120.315 1.2V0.699997H119.815V1.2H120.315ZM135.867 1.2L136.297 0.944929L136.151 0.699997H135.867V1.2ZM154.619 32.816L154.188 33.0711L154.619 33.7961L155.049 33.0711L154.619 32.816ZM173.371 1.2V0.699997H173.086L172.94 0.944929L173.371 1.2ZM188.423 1.2V46H189.423V1.2H188.423ZM188.923 45.5H177.403V46.5H188.923V45.5ZM177.903 46V15.28H176.903V46H177.903ZM176.975 15.0208L158.351 45.7408L159.206 46.2592L177.83 15.5392L176.975 15.0208ZM158.779 45.5H150.458V46.5H158.779V45.5ZM150.886 45.7408L132.262 15.0208L131.407 15.5392L150.031 46.2592L150.886 45.7408ZM131.335 15.28V46H132.335V15.28H131.335ZM131.835 45.5H120.315V46.5H131.835V45.5ZM120.815 46V1.2H119.815V46H120.815ZM120.315 1.7H135.867V0.699997H120.315V1.7ZM135.436 1.45507L154.188 33.0711L155.049 32.5609L136.297 0.944929L135.436 1.45507ZM155.049 33.0711L173.801 1.45507L172.94 0.944929L154.188 32.5609L155.049 33.0711ZM173.371 1.7H188.923V0.699997H173.371V1.7ZM205.585 34.032V33.532H205.085V34.032H205.585ZM205.585 46V46.5H206.085V46H205.585ZM194.065 46H193.565V46.5H194.065V46ZM194.065 1.2V0.699997H193.565V1.2H194.065ZM205.585 10.864V10.364H205.085V10.864H205.585ZM205.585 24.368H205.085V24.868H205.585V24.368ZM229.265 1.7C234.246 1.7 238.404 3.28079 241.312 6.04257C244.218 8.80181 245.917 12.7773 245.917 17.648H246.917C246.917 12.5347 245.127 8.28619 242.001 5.31743C238.877 2.3512 234.459 0.699997 229.265 0.699997V1.7ZM245.917 17.648C245.917 22.5185 244.218 26.4774 241.313 29.2205C238.405 31.9664 234.248 33.532 229.265 33.532V34.532C234.457 34.532 238.876 32.8976 242 29.9475C245.127 26.9946 246.917 22.7615 246.917 17.648H245.917ZM229.265 33.532H205.585V34.532H229.265V33.532ZM205.085 34.032V46H206.085V34.032H205.085ZM205.585 45.5H194.065V46.5H205.585V45.5ZM194.565 46V1.2H193.565V46H194.565ZM194.065 1.7H229.265V0.699997H194.065V1.7ZM226.065 24.868C227.768 24.868 230.095 24.8766 231.99 23.98C232.954 23.5239 233.817 22.8309 234.433 21.7872C235.047 20.7473 235.397 19.394 235.397 17.648H234.397C234.397 19.262 234.074 20.4287 233.572 21.2788C233.072 22.1251 232.375 22.692 231.563 23.076C229.906 23.8594 227.817 23.868 226.065 23.868V24.868ZM235.397 17.648C235.397 15.8867 235.047 14.5221 234.434 13.4736C233.818 12.421 232.957 11.7214 231.992 11.2608C230.096 10.3553 227.768 10.364 226.065 10.364V11.364C227.817 11.364 229.905 11.3727 231.561 12.1632C232.372 12.5506 233.071 13.123 233.571 13.9784C234.074 14.8379 234.397 16.0172 234.397 17.648H235.397ZM226.065 10.364H205.585V11.364H226.065V10.364ZM205.085 10.864V24.368H206.085V10.864H205.085ZM205.585 24.868H226.065V23.868H205.585V24.868ZM297.925 10.352V10.852H298.425V10.352H297.925ZM262.085 10.352V9.852H261.585V10.352H262.085ZM262.085 19.44H261.585V19.94H262.085V19.44ZM297.925 19.44H298.425V18.94H297.925V19.44ZM297.925 27.76V28.26H298.425V27.76H297.925ZM262.085 27.76V27.26H261.585V27.76H262.085ZM262.085 36.848H261.585V37.348H262.085V36.848ZM297.925 36.848H298.425V36.348H297.925V36.848ZM297.925 46V46.5H298.425V46H297.925ZM250.565 46H250.065V46.5H250.565V46ZM250.565 1.2V0.699997H250.065V1.2H250.565ZM297.925 1.2H298.425V0.699997H297.925V1.2ZM297.925 9.852H262.085V10.852H297.925V9.852ZM261.585 10.352V19.44H262.585V10.352H261.585ZM262.085 19.94H297.925V18.94H262.085V19.94ZM297.425 19.44V27.76H298.425V19.44H297.425ZM297.925 27.26H262.085V28.26H297.925V27.26ZM261.585 27.76V36.848H262.585V27.76H261.585ZM262.085 37.348H297.925V36.348H262.085V37.348ZM297.425 36.848V46H298.425V36.848H297.425ZM297.925 45.5H250.565V46.5H297.925V45.5ZM251.065 46V1.2H250.065V46H251.065ZM250.565 1.7H297.925V0.699997H250.565V1.7ZM297.425 1.2V10.352H298.425V1.2H297.425ZM356.152 1.2H356.652V0.699997H356.152V1.2ZM356.152 10.864V11.364H356.652V10.864H356.152ZM334.392 10.864V10.364H333.892V10.864H334.392ZM334.392 46V46.5H334.892V46H334.392ZM322.872 46H322.372V46.5H322.872V46ZM322.872 10.864H323.372V10.364H322.872V10.864ZM301.112 10.864H300.612V11.364H301.112V10.864ZM301.112 1.2V0.699997H300.612V1.2H301.112ZM355.652 1.2V10.864H356.652V1.2H355.652ZM356.152 10.364H334.392V11.364H356.152V10.364ZM333.892 10.864V46H334.892V10.864H333.892ZM334.392 45.5H322.872V46.5H334.392V45.5ZM323.372 46V10.864H322.372V46H323.372ZM322.872 10.364H301.112V11.364H322.872V10.364ZM301.612 10.864V1.2H300.612V10.864H301.612ZM301.112 1.7H356.152V0.699997H301.112V1.7ZM371.46 1.2H371.96V0.699997H371.46V1.2ZM371.46 46V46.5H371.96V46H371.46ZM359.94 46H359.44V46.5H359.94V46ZM359.94 1.2V0.699997H359.44V1.2H359.94ZM370.96 1.2V46H371.96V1.2H370.96ZM371.46 45.5H359.94V46.5H371.46V45.5ZM360.44 46V1.2H359.44V46H360.44ZM359.94 1.7H371.46V0.699997H359.94V1.7ZM430.277 1.2H430.777V0.699997H430.277V1.2ZM430.277 10.864V11.364H430.777V10.864H430.277ZM408.517 10.864V10.364H408.017V10.864H408.517ZM408.517 46V46.5H409.017V46H408.517ZM396.997 46H396.497V46.5H396.997V46ZM396.997 10.864H397.497V10.364H396.997V10.864ZM375.237 10.864H374.737V11.364H375.237V10.864ZM375.237 1.2V0.699997H374.737V1.2H375.237ZM429.777 1.2V10.864H430.777V1.2H429.777ZM430.277 10.364H408.517V11.364H430.277V10.364ZM408.017 10.864V46H409.017V10.864H408.017ZM408.517 45.5H396.997V46.5H408.517V45.5ZM397.497 46V10.864H396.497V46H397.497ZM396.997 10.364H375.237V11.364H396.997V10.364ZM375.737 10.864V1.2H374.737V10.864H375.737ZM375.237 1.7H430.277V0.699997H375.237V1.7ZM445.585 1.2H446.085V0.699997H445.585V1.2ZM445.585 46V46.5H446.085V46H445.585ZM434.065 46H433.565V46.5H434.065V46ZM434.065 1.2V0.699997H433.565V1.2H434.065ZM445.085 1.2V46H446.085V1.2H445.085ZM445.585 45.5H434.065V46.5H445.585V45.5ZM434.565 46V1.2H433.565V46H434.565ZM434.065 1.7H445.585V0.699997H434.065V1.7ZM477.585 46.14C467.785 46.14 460.884 44.1017 456.437 40.2999C452.006 36.5118 449.924 30.897 449.924 23.536H448.924C448.924 31.087 451.067 37.0242 455.788 41.06C460.493 45.0823 467.672 47.14 477.585 47.14V46.14ZM449.924 23.536C449.924 16.2077 452.006 10.6254 456.436 6.86103C460.883 3.08264 467.784 1.06 477.585 1.06V0.0599976C467.673 0.0599976 460.494 2.10136 455.789 6.09896C451.067 10.1106 448.924 16.0163 448.924 23.536H449.924ZM477.585 1.06C487.352 1.06 494.253 3.09811 498.709 6.88498C503.148 10.6581 505.245 16.2413 505.245 23.536H506.245C506.245 16.0467 504.085 10.1419 499.356 6.12301C494.644 2.11789 487.465 0.0599976 477.585 0.0599976V1.06ZM505.245 23.536C505.245 30.8634 503.148 36.4791 498.708 40.276C494.252 44.0862 487.351 46.14 477.585 46.14V47.14C487.466 47.14 494.645 45.0658 499.357 41.036C504.085 36.9929 506.245 31.0566 506.245 23.536H505.245ZM477.585 37.476C483.609 37.476 487.913 36.4006 490.712 34.0724C493.534 31.7254 494.725 28.1932 494.725 23.536H493.725C493.725 28.0308 492.579 31.2186 490.073 33.3036C487.544 35.4074 483.528 36.476 477.585 36.476V37.476ZM494.725 23.536C494.725 18.9116 493.55 15.4099 490.735 13.0864C487.943 10.7827 483.639 9.724 477.585 9.724V10.724C483.562 10.724 487.578 11.7773 490.098 13.8576C492.595 15.9181 493.725 19.0724 493.725 23.536H494.725ZM477.585 9.724C471.532 9.724 467.227 10.7662 464.435 13.0618C461.618 15.3778 460.445 18.8806 460.445 23.536H461.445C461.445 19.0394 462.575 15.8862 465.07 13.8342C467.59 11.7618 471.605 10.724 477.585 10.724V9.724ZM460.445 23.536C460.445 28.2242 461.635 31.7575 464.457 34.097C467.257 36.4171 471.562 37.476 477.585 37.476V36.476C471.639 36.476 467.624 35.4229 465.096 33.327C462.59 31.2505 461.445 28.0638 461.445 23.536H460.445ZM556.148 1.2V0.699997H555.648V1.2H556.148ZM567.668 1.2H568.168V0.699997H567.668V1.2ZM567.668 46V46.5H568.168V46H567.668ZM551.988 46L551.617 46.3362L551.766 46.5H551.988V46ZM521.46 12.4L521.83 12.0638L520.96 11.1061V12.4H521.46ZM521.46 46V46.5H521.96V46H521.46ZM509.94 46H509.44V46.5H509.94V46ZM509.94 1.2V0.699997H509.44V1.2H509.94ZM525.556 1.2L525.926 0.863731L525.777 0.699997H525.556V1.2ZM556.148 34.864L555.777 35.2003L556.648 36.1577V34.864H556.148ZM556.148 1.7H567.668V0.699997H556.148V1.7ZM567.168 1.2V46H568.168V1.2H567.168ZM567.668 45.5H551.988V46.5H567.668V45.5ZM552.358 45.6638L521.83 12.0638L521.089 12.7362L551.617 46.3362L552.358 45.6638ZM520.96 12.4V46H521.96V12.4H520.96ZM521.46 45.5H509.94V46.5H521.46V45.5ZM510.44 46V1.2H509.44V46H510.44ZM509.94 1.7H525.556V0.699997H509.94V1.7ZM525.185 1.53626L555.777 35.2003L556.518 34.5277L525.926 0.863731L525.185 1.53626ZM556.648 34.864V1.2H555.648V34.864H556.648ZM613.96 1.2H614.46V0.699997H613.96V1.2ZM613.96 46V46.5H614.46V46H613.96ZM602.44 46H601.94V46.5H602.44V46ZM602.44 1.2V0.699997H601.94V1.2H602.44ZM613.46 1.2V46H614.46V1.2H613.46ZM613.96 45.5H602.44V46.5H613.96V45.5ZM602.94 46V1.2H601.94V46H602.94ZM602.44 1.7H613.96V0.699997H602.44V1.7ZM665.273 1.2V0.699997H664.773V1.2H665.273ZM676.793 1.2H677.293V0.699997H676.793V1.2ZM676.793 46V46.5H677.293V46H676.793ZM661.113 46L660.742 46.3362L660.891 46.5H661.113V46ZM630.585 12.4L630.955 12.0638L630.085 11.1061V12.4H630.585ZM630.585 46V46.5H631.085V46H630.585ZM619.065 46H618.565V46.5H619.065V46ZM619.065 1.2V0.699997H618.565V1.2H619.065ZM634.681 1.2L635.051 0.863731L634.902 0.699997H634.681V1.2ZM665.273 34.864L664.902 35.2003L665.773 36.1577V34.864H665.273ZM665.273 1.7H676.793V0.699997H665.273V1.7ZM676.293 1.2V46H677.293V1.2H676.293ZM676.793 45.5H661.113V46.5H676.793V45.5ZM661.483 45.6638L630.955 12.0638L630.214 12.7362L660.742 46.3362L661.483 45.6638ZM630.085 12.4V46H631.085V12.4H630.085ZM630.585 45.5H619.065V46.5H630.585V45.5ZM619.565 46V1.2H618.565V46H619.565ZM619.065 1.7H634.681V0.699997H619.065V1.7ZM634.31 1.53626L664.902 35.2003L665.643 34.5277L635.051 0.863731L634.31 1.53626ZM665.773 34.864V1.2H664.773V34.864H665.773Z" fill="url(#paint0_linear_1_3)" fill-opacity="0.76"/>
<defs>
<linearGradient id="paint0_linear_1_3" x1="389" y1="-12" x2="389" y2="48" gradientUnits="userSpaceOnUse">
<stop stop-color="#3AE91D"/>
<stop offset="0.515625" stop-color="#A6A6A6" stop-opacity="0"/>
<stop offset="1" stop-color="#33ED23" stop-opacity="0.67"/>
</linearGradient>
</defs>
</svg>
