<!-- <svg width="305" height="47" viewBox="0 0 305 47" fill="none" xmlns="http://www.w3.org/2000/svg">
<path d="M55.152 1.2H55.652V0.699997H55.152V1.2ZM55.152 10.864V11.364H55.652V10.864H55.152ZM33.392 10.864V10.364H32.892V10.864H33.392ZM33.392 46V46.5H33.892V46H33.392ZM21.872 46H21.372V46.5H21.872V46ZM21.872 10.864H22.372V10.364H21.872V10.864ZM0.112 10.864H-0.388V11.364H0.112V10.864ZM0.112 1.2V0.699997H-0.388V1.2H0.112ZM54.652 1.2V10.864H55.652V1.2H54.652ZM55.152 10.364H33.392V11.364H55.152V10.364ZM32.892 10.864V46H33.892V10.864H32.892ZM33.392 45.5H21.872V46.5H33.392V45.5ZM22.372 46V10.864H21.372V46H22.372ZM21.872 10.364H0.112V11.364H21.872V10.364ZM0.612 10.864V1.2H-0.388V10.864H0.612ZM0.112 1.7H55.152V0.699997H0.112V1.7ZM84.3345 46.14C74.5348 46.14 67.6344 44.1017 63.1874 40.2999C58.7563 36.5118 56.6745 30.897 56.6745 23.536H55.6745C55.6745 31.087 57.8167 37.0242 62.5376 41.06C67.2426 45.0823 74.4222 47.14 84.3345 47.14V46.14ZM56.6745 23.536C56.6745 16.2077 58.7558 10.6254 63.1862 6.86103C67.6332 3.08264 74.534 1.06 84.3345 1.06V0.0599976C74.423 0.0599976 67.2438 2.10136 62.5388 6.09896C57.8172 10.1106 55.6745 16.0163 55.6745 23.536H56.6745ZM84.3345 1.06C94.1017 1.06 101.003 3.09811 105.459 6.88498C109.898 10.6581 111.995 16.2413 111.995 23.536H112.995C112.995 16.0467 110.835 10.1419 106.106 6.12301C101.394 2.11789 94.2153 0.0599976 84.3345 0.0599976V1.06ZM111.995 23.536C111.995 30.8634 109.898 36.4791 105.458 40.276C101.002 44.0862 94.1009 46.14 84.3345 46.14V47.14C94.2161 47.14 101.395 45.0658 106.107 41.036C110.835 36.9929 112.995 31.0566 112.995 23.536H111.995ZM84.3345 37.476C90.3589 37.476 94.6634 36.4006 97.4623 34.0724C100.284 31.7254 101.475 28.1932 101.475 23.536H100.475C100.475 28.0308 99.3293 31.2186 96.8228 33.3036C94.2936 35.4074 90.2781 36.476 84.3345 36.476V37.476ZM101.475 23.536C101.475 18.9116 100.3 15.4099 97.4848 13.0864C94.6934 10.7827 90.3889 9.724 84.3345 9.724V10.724C90.3121 10.724 94.3276 11.7773 96.8482 13.8576C99.3449 15.9181 100.475 19.0724 100.475 23.536H101.475ZM84.3345 9.724C78.2816 9.724 73.9767 10.7662 71.1849 13.0618C68.3684 15.3778 67.1945 18.8806 67.1945 23.536H68.1945C68.1945 19.0394 69.3246 15.8862 71.8201 13.8342C74.3403 11.7618 78.3554 10.724 84.3345 10.724V9.724ZM67.1945 23.536C67.1945 28.2242 68.3848 31.7575 71.2074 34.097C74.0068 36.4171 78.3116 37.476 84.3345 37.476V36.476C78.3894 36.476 74.3742 35.4229 71.8456 33.327C69.3402 31.2505 68.1945 28.0638 68.1945 23.536H67.1945ZM128.21 34.032V33.532H127.71V34.032H128.21ZM128.21 46V46.5H128.71V46H128.21ZM116.69 46H116.19V46.5H116.69V46ZM116.69 1.2V0.699997H116.19V1.2H116.69ZM128.21 10.864V10.364H127.71V10.864H128.21ZM128.21 24.368H127.71V24.868H128.21V24.368ZM151.89 1.7C156.871 1.7 161.029 3.28079 163.937 6.04257C166.843 8.80181 168.542 12.7773 168.542 17.648H169.542C169.542 12.5347 167.752 8.28619 164.626 5.31743C161.502 2.3512 157.084 0.699997 151.89 0.699997V1.7ZM168.542 17.648C168.542 22.5185 166.843 26.4774 163.938 29.2205C161.03 31.9664 156.873 33.532 151.89 33.532V34.532C157.082 34.532 161.501 32.8976 164.625 29.9475C167.752 26.9946 169.542 22.7615 169.542 17.648H168.542ZM151.89 33.532H128.21V34.532H151.89V33.532ZM127.71 34.032V46H128.71V34.032H127.71ZM128.21 45.5H116.69V46.5H128.21V45.5ZM117.19 46V1.2H116.19V46H117.19ZM116.69 1.7H151.89V0.699997H116.69V1.7ZM148.69 24.868C150.393 24.868 152.72 24.8766 154.615 23.98C155.579 23.5239 156.442 22.8309 157.058 21.7872C157.672 20.7473 158.022 19.394 158.022 17.648H157.022C157.022 19.262 156.699 20.4287 156.197 21.2788C155.697 22.1251 155 22.692 154.188 23.076C152.531 23.8594 150.442 23.868 148.69 23.868V24.868ZM158.022 17.648C158.022 15.8867 157.672 14.5221 157.059 13.4736C156.443 12.421 155.582 11.7214 154.617 11.2608C152.721 10.3553 150.393 10.364 148.69 10.364V11.364C150.442 11.364 152.53 11.3727 154.186 12.1632C154.997 12.5506 155.696 13.123 156.196 13.9784C156.699 14.8379 157.022 16.0172 157.022 17.648H158.022ZM148.69 10.364H128.21V11.364H148.69V10.364ZM127.71 10.864V24.368H128.71V10.864H127.71ZM128.21 24.868H148.69V23.868H128.21V24.868ZM184.71 1.2H185.21V0.699997H184.71V1.2ZM184.71 46V46.5H185.21V46H184.71ZM173.19 46H172.69V46.5H173.19V46ZM173.19 1.2V0.699997H172.69V1.2H173.19ZM184.21 1.2V46H185.21V1.2H184.21ZM184.71 45.5H173.19V46.5H184.71V45.5ZM173.69 46V1.2H172.69V46H173.69ZM173.19 1.7H184.71V0.699997H173.19V1.7ZM244.678 20.272V20.772H245.224L245.176 20.2276L244.678 20.272ZM232.966 20.272L232.471 20.3464L232.535 20.772H232.966V20.272ZM232.966 26.8V26.3H232.535L232.471 26.7263L232.966 26.8ZM244.678 26.8L245.176 26.8442L245.224 26.3H244.678V26.8ZM189.049 23.536C189.049 16.2077 191.131 10.6254 195.561 6.86103C200.008 3.08264 206.909 1.06 216.71 1.06V0.0599976C206.798 0.0599976 199.619 2.10136 194.914 6.09896C190.192 10.1106 188.049 16.0163 188.049 23.536H189.049ZM216.71 1.06C225.585 1.06 232.169 2.74782 236.666 5.97425C241.142 9.18603 243.614 13.9688 244.179 20.3164L245.176 20.2276C244.589 13.6472 242.005 8.57397 237.249 5.16175C232.514 1.76417 225.69 0.0599976 216.71 0.0599976V1.06ZM244.678 19.772H232.966V20.772H244.678V19.772ZM233.46 20.1976C232.896 16.4488 231.155 13.7977 228.283 12.1053C225.442 10.4307 221.545 9.724 216.71 9.724V10.724C221.474 10.724 225.161 11.4253 227.776 12.9667C230.36 14.4903 231.947 16.8632 232.471 20.3464L233.46 20.1976ZM216.71 9.724C210.813 9.724 206.512 10.7675 203.683 13.0595C200.829 15.3716 199.57 18.8713 199.57 23.536H200.57C200.57 19.0487 201.774 15.8924 204.312 13.8365C206.875 11.7605 210.894 10.724 216.71 10.724V9.724ZM199.57 23.536C199.57 28.2334 200.845 31.7636 203.705 34.0993C206.542 36.4158 210.843 37.476 216.71 37.476V36.476C210.928 36.476 206.909 35.4242 204.338 33.3247C201.79 31.2444 200.57 28.0546 200.57 23.536H199.57ZM216.71 37.476C221.515 37.476 225.413 36.7527 228.262 35.0534C231.139 33.3369 232.896 30.6545 233.46 26.8737L232.471 26.7263C231.947 30.2415 230.344 32.6471 227.749 34.1946C225.126 35.7593 221.44 36.476 216.71 36.476V37.476ZM232.966 27.3H244.678V26.3H232.966V27.3ZM244.179 26.7558C243.614 33.1364 241.141 37.9514 236.665 41.1868C232.168 44.4365 225.584 46.14 216.71 46.14V47.14C225.691 47.14 232.515 45.4195 237.25 41.9972C242.006 38.5606 244.589 33.4556 245.176 26.8442L244.179 26.7558ZM216.71 46.14C206.91 46.14 200.009 44.1017 195.562 40.2999C191.131 36.5118 189.049 30.897 189.049 23.536H188.049C188.049 31.087 190.192 37.0242 194.913 41.06C199.618 45.0823 206.797 47.14 216.71 47.14V46.14ZM247.424 30.576V30.076H246.924V30.576H247.424ZM258.945 30.576H259.445V30.076H258.945V30.576ZM276.033 27.568L276.057 27.0686L276.055 27.0685L276.033 27.568ZM302.721 15.856V16.356H303.221V15.856H302.721ZM291.201 15.856H290.701V16.356H291.201V15.856ZM276.033 18.992L276.003 19.4911L276.005 19.4913L276.033 18.992ZM247.424 31.076H258.945V30.076H247.424V31.076ZM258.445 30.576C258.445 31.8281 258.699 32.9585 259.358 33.934C260.017 34.9083 261.045 35.6773 262.5 36.2709C265.383 37.4476 270.08 37.988 277.377 37.988V36.988C270.081 36.988 265.562 36.4404 262.877 35.3451C261.548 34.8027 260.704 34.1397 260.187 33.374C259.67 32.6095 259.445 31.6919 259.445 30.576H258.445ZM277.377 37.988C283.422 37.988 287.43 37.6547 289.937 36.8522C291.197 36.4487 292.128 35.9117 292.742 35.1939C293.365 34.4645 293.621 33.5973 293.621 32.624H292.621C292.621 33.4107 292.42 34.0315 291.981 34.5441C291.533 35.0683 290.796 35.5273 289.632 35.8998C287.291 36.6493 283.427 36.988 277.377 36.988V37.988ZM293.621 32.624C293.621 31.6436 293.452 30.7765 292.886 30.0576C292.326 29.3463 291.436 28.8566 290.164 28.4878C287.638 27.7557 283.298 27.4195 276.057 27.0686L276.008 28.0674C283.295 28.4205 287.499 28.7563 289.885 29.4482C291.069 29.7914 291.727 30.2017 292.101 30.6763C292.469 31.1435 292.621 31.7484 292.621 32.624H293.621ZM276.055 27.0685C266.292 26.6204 259.573 25.6282 255.3 23.5427C253.178 22.5072 251.683 21.2122 250.712 19.5974C249.74 17.9804 249.269 16.0001 249.269 13.552H248.269C248.269 16.1279 248.765 18.2996 249.855 20.1126C250.946 21.9278 252.607 23.3408 254.861 24.4413C259.34 26.6278 266.253 27.6196 276.01 28.0675L276.055 27.0685ZM249.269 13.552C249.269 11.1776 249.872 9.23903 251.007 7.65526C252.145 6.06703 253.843 4.80048 256.089 3.81808C260.597 1.84585 267.213 1.06 275.585 1.06V0.0599976C267.188 0.0599976 260.396 0.842144 255.688 2.90192C253.326 3.93552 251.464 5.30097 250.194 7.07274C248.921 8.84897 248.269 10.9983 248.269 13.552H249.269ZM275.585 1.06C284.008 1.06 290.694 2.11595 295.257 4.4992C297.531 5.68654 299.265 7.19685 300.433 9.06052C301.6 10.9228 302.221 13.1679 302.221 15.856H303.221C303.221 13.0081 302.561 10.5732 301.28 8.52947C300 6.48714 298.118 4.86546 295.72 3.6128C290.939 1.11604 284.057 0.0599976 275.585 0.0599976V1.06ZM302.721 15.356H291.201V16.356H302.721V15.356ZM291.701 15.856C291.701 14.5361 291.368 13.4179 290.633 12.5037C289.904 11.5972 288.818 10.9404 287.4 10.4622C284.584 9.51251 280.282 9.212 274.305 9.212V10.212C280.295 10.212 284.441 10.5195 287.081 11.4098C288.391 11.8516 289.285 12.4228 289.854 13.1303C290.417 13.8301 290.701 14.7119 290.701 15.856H291.701ZM274.305 9.212C268.651 9.212 265.068 9.48025 262.892 10.1971C261.792 10.5595 260.998 11.0531 260.486 11.7333C259.971 12.4181 259.789 13.229 259.789 14.128H260.789C260.789 13.363 260.942 12.7899 261.285 12.3347C261.631 11.8749 262.217 11.4724 263.205 11.1469C265.205 10.4877 268.63 10.212 274.305 10.212V9.212ZM259.789 14.128C259.789 15.0557 259.969 15.874 260.525 16.5544C261.072 17.2239 261.927 17.6904 263.121 18.0471C265.493 18.7554 269.496 19.1084 276.003 19.4911L276.062 18.4929C269.513 18.1076 265.644 17.7566 263.408 17.0889C262.298 16.7576 261.665 16.3681 261.3 15.9216C260.944 15.486 260.789 14.9283 260.789 14.128H259.789ZM276.005 19.4913C284.863 19.9727 291.931 20.4527 296.791 22.1986C299.208 23.0665 301.033 24.233 302.258 25.8302C303.478 27.4221 304.141 29.4917 304.141 32.24H305.141C305.141 29.3243 304.435 27.0259 303.051 25.2218C301.672 23.423 299.657 22.1655 297.13 21.2574C292.102 19.4513 284.866 18.9713 276.06 18.4927L276.005 19.4913ZM304.141 32.24C304.141 35.1503 303.453 37.4422 302.2 39.2547C300.946 41.0695 299.097 42.4434 296.707 43.4685C291.906 45.5284 285.023 46.14 276.737 46.14V47.14C285.026 47.14 292.095 46.5356 297.102 44.3875C299.616 43.3086 301.635 41.8305 303.023 39.8233C304.412 37.8138 305.141 35.3137 305.141 32.24H304.141ZM276.737 46.14C267.557 46.14 260.33 45.3522 255.408 43.0047C252.96 41.8371 251.099 40.2911 249.846 38.276C248.593 36.26 247.924 33.7366 247.924 30.576H246.924C246.924 33.8794 247.624 36.596 248.997 38.804C250.37 41.0129 252.393 42.6749 254.977 43.9073C260.119 46.3598 267.548 47.14 276.737 47.14V46.14Z" fill="url(#paint0_linear_5_7)" fill-opacity="0.76"/>
<defs>
<linearGradient id="paint0_linear_5_7" x1="389" y1="-12" x2="389" y2="48" gradientUnits="userSpaceOnUse">
<stop stop-color="#3AE91D"/>
<stop offset="0.515625" stop-color="#A6A6A6" stop-opacity="0"/>
<stop offset="1" stop-color="#33ED23" stop-opacity="0.67"/>
</linearGradient>
</defs>
</svg> -->


<svg width="229" height="36" viewBox="0 0 229 36" fill="none" xmlns="http://www.w3.org/2000/svg">
<path d="M41.864 1.4H42.364V0.899998H41.864V1.4ZM41.864 8.648V9.148H42.364V8.648H41.864ZM25.544 8.648V8.148H25.044V8.648H25.544ZM25.544 35V35.5H26.044V35H25.544ZM16.904 35H16.404V35.5H16.904V35ZM16.904 8.648H17.404V8.148H16.904V8.648ZM0.584 8.648H0.084V9.148H0.584V8.648ZM0.584 1.4V0.899998H0.084V1.4H0.584ZM41.364 1.4V8.648H42.364V1.4H41.364ZM41.864 8.148H25.544V9.148H41.864V8.148ZM25.044 8.648V35H26.044V8.648H25.044ZM25.544 34.5H16.904V35.5H25.544V34.5ZM17.404 35V8.648H16.404V35H17.404ZM16.904 8.148H0.584V9.148H16.904V8.148ZM1.084 8.648V1.4H0.084V8.648H1.084ZM0.584 1.9H41.864V0.899998H0.584V1.9ZM63.7509 34.98C56.4152 34.98 51.2748 33.4537 47.9718 30.6299C44.6846 27.8198 43.1309 23.649 43.1309 18.152H42.1309C42.1309 23.839 43.7451 28.3322 47.322 31.39C50.883 34.4343 56.3026 35.98 63.7509 35.98V34.98ZM43.1309 18.152C43.1309 12.6797 44.6842 8.53335 47.9706 5.74103C51.2736 2.93464 56.4144 1.42 63.7509 1.42V0.419998C56.3033 0.419998 50.8841 1.95336 47.3231 4.97896C43.7456 8.01865 42.1309 12.4883 42.1309 18.152H43.1309ZM63.7509 1.42C71.0621 1.42 76.2035 2.94611 79.5131 5.75898C82.8065 8.5581 84.3709 12.7053 84.3709 18.152H85.3709C85.3709 12.5107 83.7433 8.0419 80.1607 4.99701C76.5943 1.96589 71.1757 0.419998 63.7509 0.419998V1.42ZM84.3709 18.152C84.3709 23.6234 82.806 27.7951 79.5119 30.612C76.2023 33.4422 71.0613 34.98 63.7509 34.98V35.98C71.1765 35.98 76.5955 34.4218 80.1618 31.372C83.7437 28.3089 85.3709 23.8166 85.3709 18.152H84.3709ZM63.7509 28.732C68.2792 28.732 71.5438 27.9246 73.6766 26.1504C75.8321 24.3574 76.7309 21.6652 76.7309 18.152H75.7309C75.7309 21.5028 74.8777 23.8506 73.0371 25.3816C71.174 26.9314 68.1985 27.732 63.7509 27.732V28.732ZM76.7309 18.152C76.7309 14.6636 75.8445 11.9939 73.6931 10.2184C71.5658 8.46269 68.3012 7.668 63.7509 7.668V8.668C68.2245 8.668 71.1999 9.4573 73.0566 10.9896C74.8893 12.5021 75.7309 14.8244 75.7309 18.152H76.7309ZM63.7509 7.668C59.202 7.668 55.9371 8.45016 53.8093 10.1998C51.6568 11.9698 50.7709 14.6406 50.7709 18.152H51.7709C51.7709 14.7994 52.613 12.4782 54.4444 10.9722C56.3007 9.44584 59.2757 8.668 63.7509 8.668V7.668ZM50.7709 18.152C50.7709 21.6882 51.6692 24.3815 53.8258 26.169C55.9591 27.9371 59.224 28.732 63.7509 28.732V27.732C59.3017 27.732 56.3266 26.9429 54.4639 25.399C52.6246 23.8745 51.7709 21.5278 51.7709 18.152H50.7709ZM96.6571 26.024V25.524H96.1571V26.024H96.6571ZM96.6571 35V35.5H97.1571V35H96.6571ZM88.0171 35H87.5171V35.5H88.0171V35ZM88.0171 1.4V0.899998H87.5171V1.4H88.0171ZM96.6571 8.648V8.148H96.1571V8.648H96.6571ZM96.6571 18.776H96.1571V19.276H96.6571V18.776ZM114.417 1.9C118.127 1.9 121.212 3.07679 123.367 5.12257C125.519 7.16581 126.781 10.1133 126.781 13.736H127.781C127.781 9.87071 126.428 6.65019 124.055 4.39743C121.686 2.1472 118.339 0.899998 114.417 0.899998V1.9ZM126.781 13.736C126.781 17.3585 125.519 20.2934 123.368 22.3245C121.214 24.3584 118.128 25.524 114.417 25.524V26.524C118.338 26.524 121.684 25.2896 124.054 23.0515C126.428 20.8106 127.781 17.6015 127.781 13.736H126.781ZM114.417 25.524H96.6571V26.524H114.417V25.524ZM96.1571 26.024V35H97.1571V26.024H96.1571ZM96.6571 34.5H88.0171V35.5H96.6571V34.5ZM88.5171 35V1.4H87.5171V35H88.5171ZM88.0171 1.9H114.417V0.899998H88.0171V1.9ZM112.017 19.276C113.288 19.276 115.063 19.2846 116.515 18.598C117.257 18.2469 117.924 17.7114 118.401 16.904C118.876 16.1003 119.141 15.062 119.141 13.736H118.141C118.141 14.93 117.903 15.7817 117.54 16.3955C117.18 17.0056 116.677 17.415 116.087 17.694C114.875 18.2674 113.338 18.276 112.017 18.276V19.276ZM119.141 13.736C119.141 12.3988 118.876 11.3521 118.402 10.5421C117.926 9.72797 117.259 9.1874 116.517 8.83279C115.064 8.13931 113.288 8.148 112.017 8.148V9.148C113.338 9.148 114.874 9.15669 116.086 9.7352C116.675 10.0166 117.178 10.43 117.539 11.0469C117.902 11.6679 118.141 12.5292 118.141 13.736H119.141ZM112.017 8.148H96.6571V9.148H112.017V8.148ZM96.1571 8.648V18.776H97.1571V8.648H96.1571ZM96.6571 19.276H112.017V18.276H96.6571V19.276ZM139.032 1.4H139.532V0.899998H139.032V1.4ZM139.032 35V35.5H139.532V35H139.032ZM130.392 35H129.892V35.5H130.392V35ZM130.392 1.4V0.899998H129.892V1.4H130.392ZM138.532 1.4V35H139.532V1.4H138.532ZM139.032 34.5H130.392V35.5H139.032V34.5ZM130.892 35V1.4H129.892V35H130.892ZM130.392 1.9H139.032V0.899998H130.392V1.9ZM184.008 15.704V16.204H184.555L184.506 15.6596L184.008 15.704ZM175.224 15.704L174.73 15.7784L174.794 16.204H175.224V15.704ZM175.224 20.6V20.1H174.793L174.73 20.5263L175.224 20.6ZM184.008 20.6L184.506 20.6442L184.554 20.1H184.008V20.6ZM142.412 18.152C142.412 12.6797 143.965 8.53335 147.252 5.74103C150.555 2.93464 155.696 1.42 163.032 1.42V0.419998C155.585 0.419998 150.165 1.95336 146.604 4.97896C143.027 8.01865 141.412 12.4883 141.412 18.152H142.412ZM163.032 1.42C169.676 1.42 174.584 2.68382 177.927 5.08225C181.249 7.46603 183.088 11.0168 183.51 15.7484L184.506 15.6596C184.064 10.6952 182.111 6.85397 178.51 4.26975C174.928 1.70017 169.781 0.419998 163.032 0.419998V1.42ZM184.008 15.204H175.224V16.204H184.008V15.204ZM175.719 15.6296C175.291 12.7848 173.965 10.7617 171.776 9.47126C169.617 8.1987 166.667 7.668 163.032 7.668V8.668C166.597 8.668 169.335 9.1933 171.268 10.3327C173.171 11.4543 174.342 13.1992 174.73 15.7784L175.719 15.6296ZM163.032 7.668C158.6 7.668 155.339 8.45148 153.183 10.1975C151.003 11.9636 150.052 14.6313 150.052 18.152H151.052C151.052 14.8087 151.949 12.4844 153.813 10.9745C155.702 9.44452 158.681 8.668 163.032 8.668V7.668ZM150.052 18.152C150.052 21.6974 151.016 24.3876 153.2 26.1713C155.361 27.9358 158.622 28.732 163.032 28.732V27.732C158.707 27.732 155.727 26.9442 153.832 25.3967C151.961 23.8684 151.052 21.5186 151.052 18.152H150.052ZM163.032 28.732C166.645 28.732 169.595 28.1887 171.76 26.8974C173.954 25.5889 175.291 23.5425 175.719 20.6737L174.73 20.5263C174.341 23.1295 173.158 24.8991 171.248 26.0386C169.309 27.1953 166.571 27.732 163.032 27.732V28.732ZM175.224 21.1H184.008V20.1H175.224V21.1ZM183.51 20.5558C183.088 25.3124 181.248 28.8874 177.925 31.2888C174.583 33.7045 169.675 34.98 163.032 34.98V35.98C169.781 35.98 174.93 34.6875 178.511 32.0992C182.112 29.4966 184.064 25.6316 184.506 20.6442L183.51 20.5558ZM163.032 34.98C155.696 34.98 150.556 33.4537 147.253 30.6299C143.966 27.8198 142.412 23.649 142.412 18.152H141.412C141.412 23.839 143.026 28.3322 146.603 31.39C150.164 34.4343 155.584 35.98 163.032 35.98V34.98ZM186.068 23.432V22.932H185.568V23.432H186.068ZM194.708 23.432H195.208V22.932H194.708V23.432ZM207.524 21.176L207.549 20.6766L207.547 20.6765L207.524 21.176ZM227.54 12.392V12.892H228.04V12.392H227.54ZM218.9 12.392H218.4V12.892H218.9V12.392ZM207.524 14.744L207.495 15.2431L207.497 15.2433L207.524 14.744ZM186.068 23.932H194.708V22.932H186.068V23.932ZM194.208 23.432C194.208 24.3881 194.403 25.2625 194.915 26.0205C195.427 26.7773 196.221 27.3673 197.327 27.8189C199.515 28.7116 203.06 29.116 208.532 29.116V28.116C203.061 28.116 199.694 27.7044 197.705 26.8931C196.724 26.4927 196.114 26.0087 195.744 25.4605C195.374 24.9135 195.208 24.2519 195.208 23.432H194.208ZM208.532 29.116C213.066 29.116 216.09 28.8667 217.991 28.2582C218.948 27.9517 219.67 27.5392 220.151 26.9767C220.642 26.4025 220.84 25.7213 220.84 24.968H219.84C219.84 25.5347 219.697 25.9695 219.391 26.3268C219.076 26.6958 218.546 27.0303 217.686 27.3058C215.951 27.8613 213.071 28.116 208.532 28.116V29.116ZM220.84 24.968C220.84 24.2196 220.712 23.5365 220.263 22.9659C219.819 22.4028 219.123 22.0256 218.158 21.7458C216.246 21.1917 212.974 20.9395 207.549 20.6766L207.5 21.6754C212.971 21.9405 216.106 22.1923 217.879 22.7062C218.756 22.9604 219.22 23.2582 219.477 23.5846C219.728 23.9035 219.84 24.3244 219.84 24.968H220.84ZM207.547 20.6765C200.224 20.3404 195.208 19.5962 192.03 18.0447C190.455 17.2762 189.354 16.3197 188.641 15.1336C187.927 13.9454 187.576 12.4841 187.576 10.664H186.576C186.576 12.6119 186.952 14.2646 187.784 15.6489C188.618 17.0353 189.883 18.1098 191.591 18.9433C194.976 20.5958 200.185 21.3396 207.501 21.6755L207.547 20.6765ZM187.576 10.664C187.576 8.90565 188.023 7.47803 188.857 6.31426C189.694 5.14603 190.947 4.20848 192.617 3.47808C195.973 2.00985 200.913 1.42 207.188 1.42V0.419998C200.888 0.419998 195.772 1.00614 192.216 2.56192C190.429 3.34352 189.013 4.37997 188.044 5.73174C187.072 7.08797 186.576 8.72635 186.576 10.664H187.576ZM207.188 1.42C213.5 1.42 218.49 2.21195 221.885 3.9852C223.574 4.86754 224.857 5.98635 225.719 7.36177C226.58 8.73581 227.04 10.3959 227.04 12.392H228.04C228.04 10.2361 227.541 8.38619 226.566 6.83072C225.592 5.27664 224.162 4.04646 222.348 3.0988C218.735 1.21205 213.549 0.419998 207.188 0.419998V1.42ZM227.54 11.892H218.9V12.892H227.54V11.892ZM219.4 12.392C219.4 11.3801 219.145 10.5119 218.572 9.7994C218.006 9.09472 217.167 8.59141 216.09 8.22822C213.956 7.50851 210.71 7.284 206.228 7.284V8.284C210.723 8.284 213.813 8.51548 215.771 9.17578C216.74 9.50259 217.386 9.92028 217.793 10.4261C218.194 10.9241 218.4 11.5559 218.4 12.392H219.4ZM206.228 7.284C201.99 7.284 199.284 7.48425 197.63 8.02911C196.791 8.30555 196.169 8.6871 195.765 9.22483C195.356 9.76715 195.216 10.405 195.216 11.096H196.216C196.216 10.539 196.328 10.1389 196.564 9.82617C196.802 9.5089 197.216 9.21845 197.943 8.97888C199.421 8.49175 201.97 8.284 206.228 8.284V7.284ZM195.216 11.096C195.216 11.8077 195.355 12.454 195.797 12.9949C196.23 13.5249 196.899 13.8844 197.805 14.1551C199.601 14.6914 202.62 14.9564 207.495 15.2431L207.554 14.2449C202.637 13.9556 199.751 13.6926 198.091 13.1969C197.27 12.9516 196.822 12.6691 196.572 12.3621C196.33 12.066 196.216 11.6803 196.216 11.096H195.216ZM207.497 15.2433C214.147 15.6047 219.427 15.9647 223.051 17.2666C224.85 17.9125 226.195 18.776 227.094 19.9487C227.989 21.1161 228.48 22.6397 228.48 24.68H229.48C229.48 22.4723 228.946 20.7199 227.888 19.3403C226.834 17.966 225.299 17.0115 223.389 16.3254C219.597 14.9633 214.15 14.6033 207.552 14.2447L207.497 15.2433ZM228.48 24.68C228.48 26.8423 227.97 28.5352 227.047 29.8699C226.123 31.207 224.758 32.2244 222.981 32.9865C219.406 34.5204 214.266 34.98 208.052 34.98V35.98C214.27 35.98 219.595 35.5276 223.376 33.9055C225.277 33.0896 226.813 31.968 227.87 30.4386C228.929 28.9068 229.48 27.0057 229.48 24.68H228.48ZM208.052 34.98C201.169 34.98 195.774 34.3882 192.11 32.6407C190.29 31.7731 188.915 30.6281 187.991 29.141C187.066 27.653 186.568 25.7846 186.568 23.432H185.568C185.568 25.9274 186.097 27.989 187.141 29.669C188.186 31.3499 189.724 32.6109 191.679 33.5433C195.563 35.3958 201.16 35.98 208.052 35.98V34.98Z" fill="url(#paint0_linear_5_7)" fill-opacity="0.76"/>
<defs>
<linearGradient id="paint0_linear_5_7" x1="118" y1="-8" x2="118" y2="41" gradientUnits="userSpaceOnUse">
<stop stop-color="#3AE91D"/>
<stop offset="0.515625" stop-color="#A6A6A6" stop-opacity="0"/>
<stop offset="1" stop-color="#33ED23" stop-opacity="0.67"/>
</linearGradient>
</defs>
</svg>
