<svg width="305" height="47" viewBox="0 0 305 47" fill="none" xmlns="http://www.w3.org/2000/svg">
<path d="M55.152 1.2H55.652V0.699997H55.152V1.2ZM55.152 10.864V11.364H55.652V10.864H55.152ZM33.392 10.864V10.364H32.892V10.864H33.392ZM33.392 46V46.5H33.892V46H33.392ZM21.872 46H21.372V46.5H21.872V46ZM21.872 10.864H22.372V10.364H21.872V10.864ZM0.112 10.864H-0.388V11.364H0.112V10.864ZM0.112 1.2V0.699997H-0.388V1.2H0.112ZM54.652 1.2V10.864H55.652V1.2H54.652ZM55.152 10.364H33.392V11.364H55.152V10.364ZM32.892 10.864V46H33.892V10.864H32.892ZM33.392 45.5H21.872V46.5H33.392V45.5ZM22.372 46V10.864H21.372V46H22.372ZM21.872 10.364H0.112V11.364H21.872V10.364ZM0.612 10.864V1.2H-0.388V10.864H0.612ZM0.112 1.7H55.152V0.699997H0.112V1.7ZM84.3345 46.14C74.5348 46.14 67.6344 44.1017 63.1874 40.2999C58.7563 36.5118 56.6745 30.897 56.6745 23.536H55.6745C55.6745 31.087 57.8167 37.0242 62.5376 41.06C67.2426 45.0823 74.4222 47.14 84.3345 47.14V46.14ZM56.6745 23.536C56.6745 16.2077 58.7558 10.6254 63.1862 6.86103C67.6332 3.08264 74.534 1.06 84.3345 1.06V0.0599976C74.423 0.0599976 67.2438 2.10136 62.5388 6.09896C57.8172 10.1106 55.6745 16.0163 55.6745 23.536H56.6745ZM84.3345 1.06C94.1017 1.06 101.003 3.09811 105.459 6.88498C109.898 10.6581 111.995 16.2413 111.995 23.536H112.995C112.995 16.0467 110.835 10.1419 106.106 6.12301C101.394 2.11789 94.2153 0.0599976 84.3345 0.0599976V1.06ZM111.995 23.536C111.995 30.8634 109.898 36.4791 105.458 40.276C101.002 44.0862 94.1009 46.14 84.3345 46.14V47.14C94.2161 47.14 101.395 45.0658 106.107 41.036C110.835 36.9929 112.995 31.0566 112.995 23.536H111.995ZM84.3345 37.476C90.3589 37.476 94.6634 36.4006 97.4623 34.0724C100.284 31.7254 101.475 28.1932 101.475 23.536H100.475C100.475 28.0308 99.3293 31.2186 96.8228 33.3036C94.2936 35.4074 90.2781 36.476 84.3345 36.476V37.476ZM101.475 23.536C101.475 18.9116 100.3 15.4099 97.4848 13.0864C94.6934 10.7827 90.3889 9.724 84.3345 9.724V10.724C90.3121 10.724 94.3276 11.7773 96.8482 13.8576C99.3449 15.9181 100.475 19.0724 100.475 23.536H101.475ZM84.3345 9.724C78.2816 9.724 73.9767 10.7662 71.1849 13.0618C68.3684 15.3778 67.1945 18.8806 67.1945 23.536H68.1945C68.1945 19.0394 69.3246 15.8862 71.8201 13.8342C74.3403 11.7618 78.3554 10.724 84.3345 10.724V9.724ZM67.1945 23.536C67.1945 28.2242 68.3848 31.7575 71.2074 34.097C74.0068 36.4171 78.3116 37.476 84.3345 37.476V36.476C78.3894 36.476 74.3742 35.4229 71.8456 33.327C69.3402 31.2505 68.1945 28.0638 68.1945 23.536H67.1945ZM128.21 34.032V33.532H127.71V34.032H128.21ZM128.21 46V46.5H128.71V46H128.21ZM116.69 46H116.19V46.5H116.69V46ZM116.69 1.2V0.699997H116.19V1.2H116.69ZM128.21 10.864V10.364H127.71V10.864H128.21ZM128.21 24.368H127.71V24.868H128.21V24.368ZM151.89 1.7C156.871 1.7 161.029 3.28079 163.937 6.04257C166.843 8.80181 168.542 12.7773 168.542 17.648H169.542C169.542 12.5347 167.752 8.28619 164.626 5.31743C161.502 2.3512 157.084 0.699997 151.89 0.699997V1.7ZM168.542 17.648C168.542 22.5185 166.843 26.4774 163.938 29.2205C161.03 31.9664 156.873 33.532 151.89 33.532V34.532C157.082 34.532 161.501 32.8976 164.625 29.9475C167.752 26.9946 169.542 22.7615 169.542 17.648H168.542ZM151.89 33.532H128.21V34.532H151.89V33.532ZM127.71 34.032V46H128.71V34.032H127.71ZM128.21 45.5H116.69V46.5H128.21V45.5ZM117.19 46V1.2H116.19V46H117.19ZM116.69 1.7H151.89V0.699997H116.69V1.7ZM148.69 24.868C150.393 24.868 152.72 24.8766 154.615 23.98C155.579 23.5239 156.442 22.8309 157.058 21.7872C157.672 20.7473 158.022 19.394 158.022 17.648H157.022C157.022 19.262 156.699 20.4287 156.197 21.2788C155.697 22.1251 155 22.692 154.188 23.076C152.531 23.8594 150.442 23.868 148.69 23.868V24.868ZM158.022 17.648C158.022 15.8867 157.672 14.5221 157.059 13.4736C156.443 12.421 155.582 11.7214 154.617 11.2608C152.721 10.3553 150.393 10.364 148.69 10.364V11.364C150.442 11.364 152.53 11.3727 154.186 12.1632C154.997 12.5506 155.696 13.123 156.196 13.9784C156.699 14.8379 157.022 16.0172 157.022 17.648H158.022ZM148.69 10.364H128.21V11.364H148.69V10.364ZM127.71 10.864V24.368H128.71V10.864H127.71ZM128.21 24.868H148.69V23.868H128.21V24.868ZM184.71 1.2H185.21V0.699997H184.71V1.2ZM184.71 46V46.5H185.21V46H184.71ZM173.19 46H172.69V46.5H173.19V46ZM173.19 1.2V0.699997H172.69V1.2H173.19ZM184.21 1.2V46H185.21V1.2H184.21ZM184.71 45.5H173.19V46.5H184.71V45.5ZM173.69 46V1.2H172.69V46H173.69ZM173.19 1.7H184.71V0.699997H173.19V1.7ZM244.678 20.272V20.772H245.224L245.176 20.2276L244.678 20.272ZM232.966 20.272L232.471 20.3464L232.535 20.772H232.966V20.272ZM232.966 26.8V26.3H232.535L232.471 26.7263L232.966 26.8ZM244.678 26.8L245.176 26.8442L245.224 26.3H244.678V26.8ZM189.049 23.536C189.049 16.2077 191.131 10.6254 195.561 6.86103C200.008 3.08264 206.909 1.06 216.71 1.06V0.0599976C206.798 0.0599976 199.619 2.10136 194.914 6.09896C190.192 10.1106 188.049 16.0163 188.049 23.536H189.049ZM216.71 1.06C225.585 1.06 232.169 2.74782 236.666 5.97425C241.142 9.18603 243.614 13.9688 244.179 20.3164L245.176 20.2276C244.589 13.6472 242.005 8.57397 237.249 5.16175C232.514 1.76417 225.69 0.0599976 216.71 0.0599976V1.06ZM244.678 19.772H232.966V20.772H244.678V19.772ZM233.46 20.1976C232.896 16.4488 231.155 13.7977 228.283 12.1053C225.442 10.4307 221.545 9.724 216.71 9.724V10.724C221.474 10.724 225.161 11.4253 227.776 12.9667C230.36 14.4903 231.947 16.8632 232.471 20.3464L233.46 20.1976ZM216.71 9.724C210.813 9.724 206.512 10.7675 203.683 13.0595C200.829 15.3716 199.57 18.8713 199.57 23.536H200.57C200.57 19.0487 201.774 15.8924 204.312 13.8365C206.875 11.7605 210.894 10.724 216.71 10.724V9.724ZM199.57 23.536C199.57 28.2334 200.845 31.7636 203.705 34.0993C206.542 36.4158 210.843 37.476 216.71 37.476V36.476C210.928 36.476 206.909 35.4242 204.338 33.3247C201.79 31.2444 200.57 28.0546 200.57 23.536H199.57ZM216.71 37.476C221.515 37.476 225.413 36.7527 228.262 35.0534C231.139 33.3369 232.896 30.6545 233.46 26.8737L232.471 26.7263C231.947 30.2415 230.344 32.6471 227.749 34.1946C225.126 35.7593 221.44 36.476 216.71 36.476V37.476ZM232.966 27.3H244.678V26.3H232.966V27.3ZM244.179 26.7558C243.614 33.1364 241.141 37.9514 236.665 41.1868C232.168 44.4365 225.584 46.14 216.71 46.14V47.14C225.691 47.14 232.515 45.4195 237.25 41.9972C242.006 38.5606 244.589 33.4556 245.176 26.8442L244.179 26.7558ZM216.71 46.14C206.91 46.14 200.009 44.1017 195.562 40.2999C191.131 36.5118 189.049 30.897 189.049 23.536H188.049C188.049 31.087 190.192 37.0242 194.913 41.06C199.618 45.0823 206.797 47.14 216.71 47.14V46.14ZM247.424 30.576V30.076H246.924V30.576H247.424ZM258.945 30.576H259.445V30.076H258.945V30.576ZM276.033 27.568L276.057 27.0686L276.055 27.0685L276.033 27.568ZM302.721 15.856V16.356H303.221V15.856H302.721ZM291.201 15.856H290.701V16.356H291.201V15.856ZM276.033 18.992L276.003 19.4911L276.005 19.4913L276.033 18.992ZM247.424 31.076H258.945V30.076H247.424V31.076ZM258.445 30.576C258.445 31.8281 258.699 32.9585 259.358 33.934C260.017 34.9083 261.045 35.6773 262.5 36.2709C265.383 37.4476 270.08 37.988 277.377 37.988V36.988C270.081 36.988 265.562 36.4404 262.877 35.3451C261.548 34.8027 260.704 34.1397 260.187 33.374C259.67 32.6095 259.445 31.6919 259.445 30.576H258.445ZM277.377 37.988C283.422 37.988 287.43 37.6547 289.937 36.8522C291.197 36.4487 292.128 35.9117 292.742 35.1939C293.365 34.4645 293.621 33.5973 293.621 32.624H292.621C292.621 33.4107 292.42 34.0315 291.981 34.5441C291.533 35.0683 290.796 35.5273 289.632 35.8998C287.291 36.6493 283.427 36.988 277.377 36.988V37.988ZM293.621 32.624C293.621 31.6436 293.452 30.7765 292.886 30.0576C292.326 29.3463 291.436 28.8566 290.164 28.4878C287.638 27.7557 283.298 27.4195 276.057 27.0686L276.008 28.0674C283.295 28.4205 287.499 28.7563 289.885 29.4482C291.069 29.7914 291.727 30.2017 292.101 30.6763C292.469 31.1435 292.621 31.7484 292.621 32.624H293.621ZM276.055 27.0685C266.292 26.6204 259.573 25.6282 255.3 23.5427C253.178 22.5072 251.683 21.2122 250.712 19.5974C249.74 17.9804 249.269 16.0001 249.269 13.552H248.269C248.269 16.1279 248.765 18.2996 249.855 20.1126C250.946 21.9278 252.607 23.3408 254.861 24.4413C259.34 26.6278 266.253 27.6196 276.01 28.0675L276.055 27.0685ZM249.269 13.552C249.269 11.1776 249.872 9.23903 251.007 7.65526C252.145 6.06703 253.843 4.80048 256.089 3.81808C260.597 1.84585 267.213 1.06 275.585 1.06V0.0599976C267.188 0.0599976 260.396 0.842144 255.688 2.90192C253.326 3.93552 251.464 5.30097 250.194 7.07274C248.921 8.84897 248.269 10.9983 248.269 13.552H249.269ZM275.585 1.06C284.008 1.06 290.694 2.11595 295.257 4.4992C297.531 5.68654 299.265 7.19685 300.433 9.06052C301.6 10.9228 302.221 13.1679 302.221 15.856H303.221C303.221 13.0081 302.561 10.5732 301.28 8.52947C300 6.48714 298.118 4.86546 295.72 3.6128C290.939 1.11604 284.057 0.0599976 275.585 0.0599976V1.06ZM302.721 15.356H291.201V16.356H302.721V15.356ZM291.701 15.856C291.701 14.5361 291.368 13.4179 290.633 12.5037C289.904 11.5972 288.818 10.9404 287.4 10.4622C284.584 9.51251 280.282 9.212 274.305 9.212V10.212C280.295 10.212 284.441 10.5195 287.081 11.4098C288.391 11.8516 289.285 12.4228 289.854 13.1303C290.417 13.8301 290.701 14.7119 290.701 15.856H291.701ZM274.305 9.212C268.651 9.212 265.068 9.48025 262.892 10.1971C261.792 10.5595 260.998 11.0531 260.486 11.7333C259.971 12.4181 259.789 13.229 259.789 14.128H260.789C260.789 13.363 260.942 12.7899 261.285 12.3347C261.631 11.8749 262.217 11.4724 263.205 11.1469C265.205 10.4877 268.63 10.212 274.305 10.212V9.212ZM259.789 14.128C259.789 15.0557 259.969 15.874 260.525 16.5544C261.072 17.2239 261.927 17.6904 263.121 18.0471C265.493 18.7554 269.496 19.1084 276.003 19.4911L276.062 18.4929C269.513 18.1076 265.644 17.7566 263.408 17.0889C262.298 16.7576 261.665 16.3681 261.3 15.9216C260.944 15.486 260.789 14.9283 260.789 14.128H259.789ZM276.005 19.4913C284.863 19.9727 291.931 20.4527 296.791 22.1986C299.208 23.0665 301.033 24.233 302.258 25.8302C303.478 27.4221 304.141 29.4917 304.141 32.24H305.141C305.141 29.3243 304.435 27.0259 303.051 25.2218C301.672 23.423 299.657 22.1655 297.13 21.2574C292.102 19.4513 284.866 18.9713 276.06 18.4927L276.005 19.4913ZM304.141 32.24C304.141 35.1503 303.453 37.4422 302.2 39.2547C300.946 41.0695 299.097 42.4434 296.707 43.4685C291.906 45.5284 285.023 46.14 276.737 46.14V47.14C285.026 47.14 292.095 46.5356 297.102 44.3875C299.616 43.3086 301.635 41.8305 303.023 39.8233C304.412 37.8138 305.141 35.3137 305.141 32.24H304.141ZM276.737 46.14C267.557 46.14 260.33 45.3522 255.408 43.0047C252.96 41.8371 251.099 40.2911 249.846 38.276C248.593 36.26 247.924 33.7366 247.924 30.576H246.924C246.924 33.8794 247.624 36.596 248.997 38.804C250.37 41.0129 252.393 42.6749 254.977 43.9073C260.119 46.3598 267.548 47.14 276.737 47.14V46.14Z" fill="url(#paint0_linear_5_7)" fill-opacity="0.76"/>
<defs>
<linearGradient id="paint0_linear_5_7" x1="389" y1="-12" x2="389" y2="48" gradientUnits="userSpaceOnUse">
<stop stop-color="#3AE91D"/>
<stop offset="0.515625" stop-color="#A6A6A6" stop-opacity="0"/>
<stop offset="1" stop-color="#33ED23" stop-opacity="0.67"/>
</linearGradient>
</defs>
</svg>
